<svg width="302" height="207" viewBox="0 0 302 207" fill="none" xmlns="http://www.w3.org/2000/svg">
<path d="M170.05 163.8L172.57 155.37L173.56 159.15C172.4 159.15 171.45 158.82 170.71 158.16C169.97 157.48 169.6 156.56 169.6 155.4C169.6 154.22 169.97 153.29 170.71 152.61C171.47 151.91 172.42 151.56 173.56 151.56C174.7 151.56 175.64 151.91 176.38 152.61C177.14 153.29 177.52 154.22 177.52 155.4C177.52 155.72 177.49 156.04 177.43 156.36C177.39 156.68 177.29 157.07 177.13 157.53C176.97 157.97 176.71 158.57 176.35 159.33L174.25 163.8H170.05ZM184.591 137.52C186.591 137.52 188.341 137.91 189.841 138.69C191.361 139.45 192.541 140.59 193.381 142.11C194.241 143.63 194.671 145.54 194.671 147.84C194.671 150.3 194.181 152.4 193.201 154.14C192.221 155.86 190.861 157.18 189.121 158.1C187.381 159.02 185.351 159.48 183.031 159.48C181.791 159.48 180.591 159.33 179.431 159.03C178.291 158.75 177.321 158.35 176.521 157.83L179.071 152.88C179.691 153.32 180.311 153.62 180.931 153.78C181.571 153.92 182.221 153.99 182.881 153.99C184.301 153.99 185.431 153.57 186.271 152.73C187.131 151.87 187.561 150.63 187.561 149.01C187.561 148.71 187.561 148.42 187.561 148.14C187.561 147.84 187.561 147.54 187.561 147.24L189.181 148.41C188.801 149.09 188.331 149.67 187.771 150.15C187.231 150.61 186.591 150.97 185.851 151.23C185.111 151.47 184.251 151.59 183.271 151.59C181.991 151.59 180.801 151.32 179.701 150.78C178.621 150.22 177.741 149.44 177.061 148.44C176.401 147.42 176.071 146.23 176.071 144.87C176.071 143.37 176.451 142.07 177.211 140.97C177.971 139.87 178.991 139.02 180.271 138.42C181.571 137.82 183.011 137.52 184.591 137.52ZM185.071 142.41C184.651 142.41 184.281 142.5 183.961 142.68C183.641 142.84 183.381 143.08 183.181 143.4C183.001 143.72 182.911 144.1 182.911 144.54C182.911 145.2 183.111 145.73 183.511 146.13C183.931 146.51 184.451 146.7 185.071 146.7C185.491 146.7 185.861 146.61 186.181 146.43C186.521 146.25 186.781 146 186.961 145.68C187.141 145.36 187.231 144.98 187.231 144.54C187.231 144.1 187.141 143.72 186.961 143.4C186.781 143.08 186.521 142.84 186.181 142.68C185.861 142.5 185.491 142.41 185.071 142.41ZM203.525 159.48C201.665 159.48 200.015 159.05 198.575 158.19C197.155 157.33 196.035 156.08 195.215 154.44C194.415 152.8 194.015 150.82 194.015 148.5C194.015 146.18 194.415 144.2 195.215 142.56C196.035 140.92 197.155 139.67 198.575 138.81C200.015 137.95 201.665 137.52 203.525 137.52C205.385 137.52 207.025 137.95 208.445 138.81C209.885 139.67 211.005 140.92 211.805 142.56C212.625 144.2 213.035 146.18 213.035 148.5C213.035 150.82 212.625 152.8 211.805 154.44C211.005 156.08 209.885 157.33 208.445 158.19C207.025 159.05 205.385 159.48 203.525 159.48ZM203.525 153.81C203.985 153.81 204.395 153.65 204.755 153.33C205.115 153.01 205.395 152.46 205.595 151.68C205.815 150.9 205.925 149.84 205.925 148.5C205.925 147.14 205.815 146.08 205.595 145.32C205.395 144.54 205.115 143.99 204.755 143.67C204.395 143.35 203.985 143.19 203.525 143.19C203.065 143.19 202.655 143.35 202.295 143.67C201.935 143.99 201.645 144.54 201.425 145.32C201.225 146.08 201.125 147.14 201.125 148.5C201.125 149.84 201.225 150.9 201.425 151.68C201.645 152.46 201.935 153.01 202.295 153.33C202.655 153.65 203.065 153.81 203.525 153.81Z" fill="white"/>
<path d="M53.824 164V141.6H64.608C66.6987 141.6 68.5013 141.941 70.016 142.624C71.552 143.307 72.736 144.288 73.568 145.568C74.4 146.827 74.816 148.32 74.816 150.048C74.816 151.776 74.4 153.269 73.568 154.528C72.736 155.765 71.552 156.715 70.016 157.376C68.5013 158.037 66.6987 158.368 64.608 158.368H58.016L61.376 155.264V164H53.824ZM67.232 164L61.728 155.84H69.728L75.296 164H67.232ZM61.376 156.096L58.016 152.672H64.128C65.1733 152.672 65.9413 152.437 66.432 151.968C66.944 151.499 67.2 150.859 67.2 150.048C67.2 149.237 66.944 148.597 66.432 148.128C65.9413 147.659 65.1733 147.424 64.128 147.424H58.016L61.376 144V156.096ZM83.4598 164.512C81.5824 164.512 79.7691 164.299 78.0198 163.872C76.2704 163.445 74.8304 162.891 73.6998 162.208L76.1318 156.704C77.1984 157.323 78.3824 157.824 79.6838 158.208C81.0064 158.571 82.2864 158.752 83.5238 158.752C84.2491 158.752 84.8144 158.709 85.2198 158.624C85.6464 158.517 85.9558 158.379 86.1478 158.208C86.3398 158.016 86.4358 157.792 86.4358 157.536C86.4358 157.131 86.2118 156.811 85.7638 156.576C85.3158 156.341 84.7184 156.149 83.9718 156C83.2464 155.829 82.4464 155.659 81.5718 155.488C80.6971 155.296 79.8118 155.051 78.9158 154.752C78.0411 154.453 77.2304 154.059 76.4838 153.568C75.7584 153.077 75.1718 152.437 74.7238 151.648C74.2758 150.837 74.0518 149.835 74.0518 148.64C74.0518 147.253 74.4358 145.995 75.2038 144.864C75.9931 143.712 77.1558 142.795 78.6918 142.112C80.2491 141.429 82.1798 141.088 84.4838 141.088C85.9984 141.088 87.4918 141.248 88.9638 141.568C90.4358 141.888 91.7584 142.379 92.9318 143.04L90.6598 148.512C89.5504 147.957 88.4731 147.541 87.4278 147.264C86.4038 146.987 85.4011 146.848 84.4198 146.848C83.6944 146.848 83.1184 146.912 82.6918 147.04C82.2651 147.168 81.9558 147.339 81.7638 147.552C81.5931 147.765 81.5078 148 81.5078 148.256C81.5078 148.64 81.7318 148.949 82.1798 149.184C82.6278 149.397 83.2144 149.579 83.9398 149.728C84.6864 149.877 85.4971 150.037 86.3718 150.208C87.2678 150.379 88.1531 150.613 89.0278 150.912C89.9024 151.211 90.7024 151.605 91.4278 152.096C92.1744 152.587 92.7718 153.227 93.2198 154.016C93.6678 154.805 93.8918 155.787 93.8918 156.96C93.8918 158.325 93.4971 159.584 92.7078 160.736C91.9398 161.867 90.7878 162.784 89.2518 163.488C87.7158 164.171 85.7851 164.512 83.4598 164.512ZM81.9238 167.84V163.68H86.4358V167.84H81.9238ZM81.9238 141.92V137.76H86.4358V141.92H81.9238Z" fill="white"/>
<path d="M111.76 149.04C115.76 149.04 119.26 149.82 122.26 151.38C125.3 152.9 127.66 155.18 129.34 158.22C131.06 161.26 131.92 165.08 131.92 169.68C131.92 174.6 130.94 178.8 128.98 182.28C127.02 185.72 124.3 188.36 120.82 190.2C117.34 192.04 113.28 192.96 108.64 192.96C106.16 192.96 103.76 192.66 101.44 192.06C99.16 191.5 97.22 190.7 95.62 189.66L100.72 179.76C101.96 180.64 103.2 181.24 104.44 181.56C105.72 181.84 107.02 181.98 108.34 181.98C111.18 181.98 113.44 181.14 115.12 179.46C116.84 177.74 117.7 175.26 117.7 172.02C117.7 171.42 117.7 170.84 117.7 170.28C117.7 169.68 117.7 169.08 117.7 168.48L120.94 170.82C120.18 172.18 119.24 173.34 118.12 174.3C117.04 175.22 115.76 175.94 114.28 176.46C112.8 176.94 111.08 177.18 109.12 177.18C106.56 177.18 104.18 176.64 101.98 175.56C99.82 174.44 98.06 172.88 96.7 170.88C95.38 168.84 94.72 166.46 94.72 163.74C94.72 160.74 95.48 158.14 97 155.94C98.52 153.74 100.56 152.04 103.12 150.84C105.72 149.64 108.6 149.04 111.76 149.04ZM112.72 158.82C111.88 158.82 111.14 159 110.5 159.36C109.86 159.68 109.34 160.16 108.94 160.8C108.58 161.44 108.4 162.2 108.4 163.08C108.4 164.4 108.8 165.46 109.6 166.26C110.44 167.02 111.48 167.4 112.72 167.4C113.56 167.4 114.3 167.22 114.94 166.86C115.62 166.5 116.14 166 116.5 165.36C116.86 164.72 117.04 163.96 117.04 163.08C117.04 162.2 116.86 161.44 116.5 160.8C116.14 160.16 115.62 159.68 114.94 159.36C114.3 159 113.56 158.82 112.72 158.82ZM146.628 149.04C150.628 149.04 154.128 149.82 157.128 151.38C160.168 152.9 162.528 155.18 164.208 158.22C165.928 161.26 166.788 165.08 166.788 169.68C166.788 174.6 165.808 178.8 163.848 182.28C161.888 185.72 159.168 188.36 155.688 190.2C152.208 192.04 148.148 192.96 143.508 192.96C141.028 192.96 138.628 192.66 136.308 192.06C134.028 191.5 132.088 190.7 130.488 189.66L135.588 179.76C136.828 180.64 138.068 181.24 139.308 181.56C140.588 181.84 141.888 181.98 143.208 181.98C146.048 181.98 148.308 181.14 149.988 179.46C151.708 177.74 152.568 175.26 152.568 172.02C152.568 171.42 152.568 170.84 152.568 170.28C152.568 169.68 152.568 169.08 152.568 168.48L155.808 170.82C155.048 172.18 154.108 173.34 152.988 174.3C151.908 175.22 150.628 175.94 149.148 176.46C147.668 176.94 145.948 177.18 143.988 177.18C141.428 177.18 139.048 176.64 136.848 175.56C134.688 174.44 132.928 172.88 131.568 170.88C130.248 168.84 129.588 166.46 129.588 163.74C129.588 160.74 130.348 158.14 131.868 155.94C133.388 153.74 135.428 152.04 137.988 150.84C140.588 149.64 143.468 149.04 146.628 149.04ZM147.588 158.82C146.748 158.82 146.008 159 145.368 159.36C144.728 159.68 144.208 160.16 143.808 160.8C143.448 161.44 143.268 162.2 143.268 163.08C143.268 164.4 143.668 165.46 144.468 166.26C145.308 167.02 146.348 167.4 147.588 167.4C148.428 167.4 149.168 167.22 149.808 166.86C150.488 166.5 151.008 166 151.368 165.36C151.728 164.72 151.908 163.96 151.908 163.08C151.908 162.2 151.728 161.44 151.368 160.8C151.008 160.16 150.488 159.68 149.808 159.36C149.168 159 148.428 158.82 147.588 158.82Z" fill="white"/>
<path d="M28.512 124L62.304 45.152L70.368 57.824H27.872L39.648 44.128V70.88H14.688V34.4H91.36V52.96L61.536 124H28.512ZM127.328 126.048C119.392 126.048 112.352 124.213 106.208 120.544C100.149 116.875 95.3707 111.541 91.872 104.544C88.4587 97.5467 86.752 89.0987 86.752 79.2C86.752 69.3013 88.4587 60.8533 91.872 53.856C95.3707 46.8587 100.149 41.5253 106.208 37.856C112.352 34.1867 119.392 32.352 127.328 32.352C135.264 32.352 142.261 34.1867 148.32 37.856C154.464 41.5253 159.243 46.8587 162.656 53.856C166.155 60.8533 167.904 69.3013 167.904 79.2C167.904 89.0987 166.155 97.5467 162.656 104.544C159.243 111.541 154.464 116.875 148.32 120.544C142.261 124.213 135.264 126.048 127.328 126.048ZM127.328 101.856C129.291 101.856 131.04 101.173 132.576 99.808C134.112 98.4427 135.307 96.096 136.16 92.768C137.099 89.44 137.568 84.9173 137.568 79.2C137.568 73.3973 137.099 68.8747 136.16 65.632C135.307 62.304 134.112 59.9573 132.576 58.592C131.04 57.2267 129.291 56.544 127.328 56.544C125.365 56.544 123.616 57.2267 122.08 58.592C120.544 59.9573 119.307 62.304 118.368 65.632C117.515 68.8747 117.088 73.3973 117.088 79.2C117.088 84.9173 117.515 89.44 118.368 92.768C119.307 96.096 120.544 98.4427 122.08 99.808C123.616 101.173 125.365 101.856 127.328 101.856ZM206.993 126.048C199.057 126.048 192.017 124.213 185.873 120.544C179.814 116.875 175.036 111.541 171.537 104.544C168.124 97.5467 166.417 89.0987 166.417 79.2C166.417 69.3013 168.124 60.8533 171.537 53.856C175.036 46.8587 179.814 41.5253 185.873 37.856C192.017 34.1867 199.057 32.352 206.993 32.352C214.929 32.352 221.926 34.1867 227.985 37.856C234.129 41.5253 238.908 46.8587 242.321 53.856C245.82 60.8533 247.569 69.3013 247.569 79.2C247.569 89.0987 245.82 97.5467 242.321 104.544C238.908 111.541 234.129 116.875 227.985 120.544C221.926 124.213 214.929 126.048 206.993 126.048ZM206.993 101.856C208.956 101.856 210.705 101.173 212.241 99.808C213.777 98.4427 214.972 96.096 215.825 92.768C216.764 89.44 217.233 84.9173 217.233 79.2C217.233 73.3973 216.764 68.8747 215.825 65.632C214.972 62.304 213.777 59.9573 212.241 58.592C210.705 57.2267 208.956 56.544 206.993 56.544C205.03 56.544 203.281 57.2267 201.745 58.592C200.209 59.9573 198.972 62.304 198.033 65.632C197.18 68.8747 196.753 73.3973 196.753 79.2C196.753 84.9173 197.18 89.44 198.033 92.768C198.972 96.096 200.209 98.4427 201.745 99.808C203.281 101.173 205.03 101.856 206.993 101.856Z" fill="white"/>
<rect x="223" y="24" width="79" height="25" rx="5" fill="#4D0513"/>
<rect x="206" y="167" width="35" height="20" rx="3" fill="#4D0513"/>
<path d="M231.254 45V29.6H235.522L241.682 39.654H239.438L245.422 29.6H249.69L249.734 45H245.004L244.96 36.728H245.708L241.616 43.614H239.328L235.06 36.728H235.984V45H231.254ZM255.236 35.32H262.1V39.06H255.236V35.32ZM255.588 41.084H263.288V45H250.484V29.6H263.002V33.516H255.588V41.084ZM271.513 45.352C270.266 45.352 269.115 45.1613 268.059 44.78C267.018 44.384 266.108 43.8267 265.331 43.108C264.568 42.3893 263.974 41.5387 263.549 40.556C263.124 39.5733 262.911 38.488 262.911 37.3C262.911 36.112 263.124 35.0267 263.549 34.044C263.974 33.0613 264.576 32.2107 265.353 31.492C266.13 30.7733 267.047 30.2233 268.103 29.842C269.174 29.446 270.347 29.248 271.623 29.248C273.148 29.248 274.505 29.5047 275.693 30.018C276.896 30.5313 277.886 31.2647 278.663 32.218L275.341 35.144C274.857 34.5867 274.329 34.1687 273.757 33.89C273.2 33.5967 272.576 33.45 271.887 33.45C271.315 33.45 270.794 33.538 270.325 33.714C269.87 33.89 269.482 34.1467 269.159 34.484C268.836 34.8213 268.587 35.2247 268.411 35.694C268.235 36.1633 268.147 36.6987 268.147 37.3C268.147 37.872 268.235 38.4 268.411 38.884C268.587 39.3533 268.836 39.7567 269.159 40.094C269.482 40.4313 269.863 40.6953 270.303 40.886C270.758 41.062 271.264 41.15 271.821 41.15C272.408 41.15 272.98 41.0547 273.537 40.864C274.094 40.6587 274.688 40.314 275.319 39.83L278.223 43.394C277.284 44.0247 276.214 44.5087 275.011 44.846C273.808 45.1833 272.642 45.352 271.513 45.352ZM273.713 42.734V36.882H278.223V43.394L273.713 42.734ZM277.003 45L283.735 29.6H288.839L295.571 45H290.203L285.231 32.064H287.255L282.283 45H277.003ZM281.007 42.316L282.327 38.576H289.411L290.731 42.316H281.007Z" fill="white"/>
<path d="M208.52 182.2L212.48 170.896H214.88L210.92 182.2H208.52ZM214.009 181V172.6H216.337L219.697 178.084H218.473L221.737 172.6H224.065L224.089 181H221.509L221.485 176.488H221.893L219.661 180.244H218.413L216.085 176.488H216.589V181H214.009ZM228.038 181.12C227.238 181.12 226.538 180.972 225.938 180.676C225.346 180.38 224.886 179.976 224.558 179.464C224.23 178.944 224.066 178.36 224.066 177.712C224.066 177.048 224.226 176.46 224.546 175.948C224.874 175.436 225.318 175.036 225.878 174.748C226.446 174.46 227.082 174.316 227.786 174.316C228.434 174.316 229.03 174.444 229.574 174.7C230.126 174.956 230.566 175.336 230.894 175.84C231.23 176.344 231.398 176.968 231.398 177.712C231.398 177.808 231.394 177.916 231.386 178.036C231.378 178.148 231.37 178.252 231.362 178.348H226.31V177.04H229.922L228.902 177.388C228.902 177.132 228.854 176.916 228.758 176.74C228.67 176.556 228.546 176.416 228.386 176.32C228.226 176.216 228.034 176.164 227.81 176.164C227.586 176.164 227.39 176.216 227.222 176.32C227.062 176.416 226.938 176.556 226.85 176.74C226.762 176.916 226.718 177.132 226.718 177.388V177.796C226.718 178.076 226.774 178.316 226.886 178.516C226.998 178.716 227.158 178.868 227.366 178.972C227.574 179.068 227.826 179.116 228.122 179.116C228.426 179.116 228.674 179.076 228.866 178.996C229.066 178.916 229.274 178.796 229.49 178.636L230.906 180.064C230.586 180.408 230.19 180.672 229.718 180.856C229.254 181.032 228.694 181.12 228.038 181.12ZM225.05 173.716L226.586 171.796H228.89L230.426 173.716H228.746L227.042 172.156H228.434L226.73 173.716H225.05ZM233.862 181.12C233.302 181.12 232.75 181.06 232.206 180.94C231.662 180.82 231.222 180.664 230.886 180.472L231.63 178.684C231.942 178.868 232.302 179.012 232.71 179.116C233.126 179.22 233.53 179.272 233.922 179.272C234.25 179.272 234.47 179.244 234.582 179.188C234.702 179.132 234.762 179.056 234.762 178.96C234.762 178.864 234.694 178.796 234.558 178.756C234.422 178.708 234.242 178.672 234.018 178.648C233.794 178.624 233.546 178.596 233.274 178.564C233.01 178.524 232.742 178.468 232.47 178.396C232.198 178.324 231.95 178.216 231.726 178.072C231.502 177.928 231.322 177.736 231.186 177.496C231.05 177.248 230.982 176.936 230.982 176.56C230.982 176.144 231.106 175.768 231.354 175.432C231.61 175.096 231.986 174.828 232.482 174.628C232.986 174.42 233.606 174.316 234.342 174.316C234.822 174.316 235.302 174.36 235.782 174.448C236.262 174.536 236.674 174.672 237.018 174.856L236.274 176.644C235.938 176.46 235.606 176.336 235.278 176.272C234.958 176.2 234.658 176.164 234.378 176.164C234.034 176.164 233.798 176.196 233.67 176.26C233.55 176.324 233.49 176.396 233.49 176.476C233.49 176.572 233.558 176.644 233.694 176.692C233.83 176.74 234.01 176.776 234.234 176.8C234.458 176.824 234.702 176.856 234.966 176.896C235.238 176.928 235.506 176.984 235.77 177.064C236.042 177.136 236.29 177.244 236.514 177.388C236.738 177.532 236.918 177.728 237.054 177.976C237.19 178.216 237.258 178.524 237.258 178.9C237.258 179.292 237.134 179.66 236.886 180.004C236.638 180.34 236.262 180.612 235.758 180.82C235.254 181.02 234.622 181.12 233.862 181.12Z" fill="white"/>
<rect y="131" width="264" height="3" fill="white"/>
</svg>
