<svg width="289" height="236" viewBox="0 0 289 236" fill="none" xmlns="http://www.w3.org/2000/svg">
<path d="M125.04 224.64V208.96H130.8V224.64H125.04ZM119.76 219.52V214.08H136.08V219.52H119.76Z" fill="black"/>
<path d="M50.824 167V144.6H61.608C63.6987 144.6 65.5013 144.941 67.016 145.624C68.552 146.307 69.736 147.288 70.568 148.568C71.4 149.827 71.816 151.32 71.816 153.048C71.816 154.776 71.4 156.269 70.568 157.528C69.736 158.765 68.552 159.715 67.016 160.376C65.5013 161.037 63.6987 161.368 61.608 161.368H55.016L58.376 158.264V167H50.824ZM64.232 167L58.728 158.84H66.728L72.296 167H64.232ZM58.376 159.096L55.016 155.672H61.128C62.1733 155.672 62.9413 155.437 63.432 154.968C63.944 154.499 64.2 153.859 64.2 153.048C64.2 152.237 63.944 151.597 63.432 151.128C62.9413 150.659 62.1733 150.424 61.128 150.424H55.016L58.376 147V159.096ZM80.4598 167.512C78.5824 167.512 76.7691 167.299 75.0198 166.872C73.2704 166.445 71.8304 165.891 70.6998 165.208L73.1318 159.704C74.1984 160.323 75.3824 160.824 76.6838 161.208C78.0064 161.571 79.2864 161.752 80.5238 161.752C81.2491 161.752 81.8144 161.709 82.2198 161.624C82.6464 161.517 82.9558 161.379 83.1478 161.208C83.3398 161.016 83.4358 160.792 83.4358 160.536C83.4358 160.131 83.2118 159.811 82.7638 159.576C82.3158 159.341 81.7184 159.149 80.9718 159C80.2464 158.829 79.4464 158.659 78.5718 158.488C77.6971 158.296 76.8118 158.051 75.9158 157.752C75.0411 157.453 74.2304 157.059 73.4838 156.568C72.7584 156.077 72.1718 155.437 71.7238 154.648C71.2758 153.837 71.0518 152.835 71.0518 151.64C71.0518 150.253 71.4358 148.995 72.2038 147.864C72.9931 146.712 74.1558 145.795 75.6918 145.112C77.2491 144.429 79.1798 144.088 81.4838 144.088C82.9984 144.088 84.4918 144.248 85.9638 144.568C87.4358 144.888 88.7584 145.379 89.9318 146.04L87.6598 151.512C86.5504 150.957 85.4731 150.541 84.4278 150.264C83.4038 149.987 82.4011 149.848 81.4198 149.848C80.6944 149.848 80.1184 149.912 79.6918 150.04C79.2651 150.168 78.9558 150.339 78.7638 150.552C78.5931 150.765 78.5078 151 78.5078 151.256C78.5078 151.64 78.7318 151.949 79.1798 152.184C79.6278 152.397 80.2144 152.579 80.9398 152.728C81.6864 152.877 82.4971 153.037 83.3718 153.208C84.2678 153.379 85.1531 153.613 86.0278 153.912C86.9024 154.211 87.7024 154.605 88.4278 155.096C89.1744 155.587 89.7718 156.227 90.2198 157.016C90.6678 157.805 90.8918 158.787 90.8918 159.96C90.8918 161.325 90.4971 162.584 89.7078 163.736C88.9398 164.867 87.7878 165.784 86.2518 166.488C84.7158 167.171 82.7851 167.512 80.4598 167.512ZM78.9238 170.84V166.68H83.4358V170.84H78.9238ZM78.9238 144.92V140.76H83.4358V144.92H78.9238Z" fill="#333333"/>
<path d="M114.34 192.96C110.62 192.96 107.34 192.42 104.5 191.34C101.7 190.22 99.5 188.66 97.9 186.66C96.3 184.62 95.5 182.24 95.5 179.52C95.5 176.8 96.32 174.48 97.96 172.56C99.6 170.64 101.84 169.18 104.68 168.18C107.52 167.18 110.74 166.68 114.34 166.68C117.94 166.68 121.16 167.18 124 168.18C126.84 169.18 129.08 170.64 130.72 172.56C132.36 174.48 133.18 176.8 133.18 179.52C133.18 182.24 132.38 184.62 130.78 186.66C129.18 188.66 126.96 190.22 124.12 191.34C121.32 192.42 118.06 192.96 114.34 192.96ZM114.34 183.42C115.7 183.42 116.8 183.04 117.64 182.28C118.52 181.48 118.96 180.4 118.96 179.04C118.96 177.68 118.52 176.62 117.64 175.86C116.8 175.06 115.7 174.66 114.34 174.66C112.98 174.66 111.86 175.06 110.98 175.86C110.14 176.62 109.72 177.68 109.72 179.04C109.72 180.4 110.14 181.48 110.98 182.28C111.86 183.04 112.98 183.42 114.34 183.42ZM114.34 173.52C111.06 173.52 108.1 173.06 105.46 172.14C102.86 171.18 100.8 169.82 99.28 168.06C97.76 166.26 97 164.1 97 161.58C97 159.02 97.74 156.82 99.22 154.98C100.7 153.1 102.74 151.64 105.34 150.6C107.94 149.56 110.94 149.04 114.34 149.04C117.74 149.04 120.74 149.56 123.34 150.6C125.94 151.64 127.98 153.1 129.46 154.98C130.94 156.82 131.68 159.02 131.68 161.58C131.68 164.1 130.92 166.26 129.4 168.06C127.88 169.82 125.82 171.18 123.22 172.14C120.62 173.06 117.66 173.52 114.34 173.52ZM114.34 165.78C115.3 165.78 116.1 165.46 116.74 164.82C117.38 164.18 117.7 163.3 117.7 162.18C117.7 161.02 117.38 160.14 116.74 159.54C116.1 158.9 115.3 158.58 114.34 158.58C113.38 158.58 112.58 158.9 111.94 159.54C111.3 160.14 110.98 161.02 110.98 162.18C110.98 163.3 111.3 164.18 111.94 164.82C112.58 165.46 113.38 165.78 114.34 165.78ZM149.124 192.96C146.244 192.96 143.324 192.64 140.364 192C137.404 191.36 134.804 190.42 132.564 189.18L137.364 178.74C139.164 179.78 141.044 180.56 143.004 181.08C144.964 181.56 146.824 181.8 148.584 181.8C150.184 181.8 151.504 181.52 152.544 180.96C153.584 180.4 154.104 179.58 154.104 178.5C154.104 177.9 153.924 177.38 153.564 176.94C153.204 176.46 152.564 176.1 151.644 175.86C150.764 175.62 149.464 175.5 147.744 175.5H135.564L137.664 150H165.564V160.68H142.644L149.784 154.62L148.524 170.88L141.384 164.82H151.164C155.324 164.82 158.644 165.42 161.124 166.62C163.644 167.82 165.464 169.44 166.584 171.48C167.744 173.48 168.324 175.72 168.324 178.2C168.324 180.68 167.644 183.06 166.284 185.34C164.964 187.58 162.884 189.42 160.044 190.86C157.244 192.26 153.604 192.96 149.124 192.96Z" fill="#333333"/>
<path d="M52.56 126.048C46.416 126.048 40.1867 125.365 33.872 124C27.5573 122.635 22.0107 120.629 17.232 117.984L27.472 95.712C31.312 97.9307 35.3227 99.5947 39.504 100.704C43.7707 101.728 47.7813 102.24 51.536 102.24C54.9493 102.24 57.7227 101.685 59.856 100.576C62.0747 99.3813 63.184 97.632 63.184 95.328C63.184 93.3653 62.3733 91.872 60.752 90.848C59.1307 89.7387 56.4 89.184 52.56 89.184H40.656V70.624L63.824 47.072L66.512 57.184H21.84V34.4H88.656V52.96L65.488 76.512L51.024 68.32H58.96C70.224 68.32 78.8 70.8373 84.688 75.872C90.576 80.9067 93.52 87.392 93.52 95.328C93.52 100.448 92.0693 105.355 89.168 110.048C86.352 114.741 81.9147 118.581 75.856 121.568C69.8827 124.555 62.1173 126.048 52.56 126.048ZM122.383 126.048C116.239 126.048 110.01 125.365 103.695 124C97.3803 122.635 91.8337 120.629 87.055 117.984L97.295 95.712C101.135 97.9307 105.146 99.5947 109.327 100.704C113.508 101.728 117.476 102.24 121.231 102.24C124.644 102.24 127.46 101.643 129.679 100.448C131.898 99.2533 133.007 97.504 133.007 95.2C133.007 93.92 132.623 92.8107 131.855 91.872C131.087 90.848 129.722 90.08 127.759 89.568C125.882 89.056 123.108 88.8 119.439 88.8H93.455L97.935 34.4H157.455V57.184H108.559L123.791 44.256L121.103 78.944L105.871 66.016H126.735C135.61 66.016 142.692 67.296 147.983 69.856C153.359 72.416 157.242 75.872 159.631 80.224C162.106 84.4907 163.343 89.2693 163.343 94.56C163.343 99.8507 161.892 104.928 158.991 109.792C156.175 114.571 151.738 118.496 145.679 121.568C139.706 124.555 131.94 126.048 122.383 126.048ZM200.993 126.048C193.057 126.048 186.017 124.213 179.873 120.544C173.814 116.875 169.036 111.541 165.537 104.544C162.124 97.5467 160.417 89.0987 160.417 79.2C160.417 69.3013 162.124 60.8533 165.537 53.856C169.036 46.8587 173.814 41.5253 179.873 37.856C186.017 34.1867 193.057 32.352 200.993 32.352C208.929 32.352 215.926 34.1867 221.985 37.856C228.129 41.5253 232.908 46.8587 236.321 53.856C239.82 60.8533 241.569 69.3013 241.569 79.2C241.569 89.0987 239.82 97.5467 236.321 104.544C232.908 111.541 228.129 116.875 221.985 120.544C215.926 124.213 208.929 126.048 200.993 126.048ZM200.993 101.856C202.956 101.856 204.705 101.173 206.241 99.808C207.777 98.4427 208.972 96.096 209.825 92.768C210.764 89.44 211.233 84.9173 211.233 79.2C211.233 73.3973 210.764 68.8747 209.825 65.632C208.972 62.304 207.777 59.9573 206.241 58.592C204.705 57.2267 202.956 56.544 200.993 56.544C199.03 56.544 197.281 57.2267 195.745 58.592C194.209 59.9573 192.972 62.304 192.033 65.632C191.18 68.8747 190.753 73.3973 190.753 79.2C190.753 84.9173 191.18 89.44 192.033 92.768C192.972 96.096 194.209 98.4427 195.745 99.808C197.281 101.173 199.03 101.856 200.993 101.856Z" fill="#333333"/>
<rect x="210" y="27" width="79" height="25" rx="5" fill="#DB0E35"/>
<rect x="213" y="167" width="35" height="20" rx="3" fill="#DB0E35"/>
<path d="M218.254 47V31.6H222.522L228.682 41.654H226.438L232.422 31.6H236.69L236.734 47H232.004L231.96 38.728H232.708L228.616 45.614H226.328L222.06 38.728H222.984V47H218.254ZM242.236 37.32H249.1V41.06H242.236V37.32ZM242.588 43.084H250.288V47H237.484V31.6H250.002V35.516H242.588V43.084ZM258.513 47.352C257.266 47.352 256.115 47.1613 255.059 46.78C254.018 46.384 253.108 45.8267 252.331 45.108C251.568 44.3893 250.974 43.5387 250.549 42.556C250.124 41.5733 249.911 40.488 249.911 39.3C249.911 38.112 250.124 37.0267 250.549 36.044C250.974 35.0613 251.576 34.2107 252.353 33.492C253.13 32.7733 254.047 32.2233 255.103 31.842C256.174 31.446 257.347 31.248 258.623 31.248C260.148 31.248 261.505 31.5047 262.693 32.018C263.896 32.5313 264.886 33.2647 265.663 34.218L262.341 37.144C261.857 36.5867 261.329 36.1687 260.757 35.89C260.2 35.5967 259.576 35.45 258.887 35.45C258.315 35.45 257.794 35.538 257.325 35.714C256.87 35.89 256.482 36.1467 256.159 36.484C255.836 36.8213 255.587 37.2247 255.411 37.694C255.235 38.1633 255.147 38.6987 255.147 39.3C255.147 39.872 255.235 40.4 255.411 40.884C255.587 41.3533 255.836 41.7567 256.159 42.094C256.482 42.4313 256.863 42.6953 257.303 42.886C257.758 43.062 258.264 43.15 258.821 43.15C259.408 43.15 259.98 43.0547 260.537 42.864C261.094 42.6587 261.688 42.314 262.319 41.83L265.223 45.394C264.284 46.0247 263.214 46.5087 262.011 46.846C260.808 47.1833 259.642 47.352 258.513 47.352ZM260.713 44.734V38.882H265.223V45.394L260.713 44.734ZM264.003 47L270.735 31.6H275.839L282.571 47H277.203L272.231 34.064H274.255L269.283 47H264.003ZM268.007 44.316L269.327 40.576H276.411L277.731 44.316H268.007Z" fill="white"/>
<path d="M215.52 182.2L219.48 170.896H221.88L217.92 182.2H215.52ZM221.009 181V172.6H223.337L226.697 178.084H225.473L228.737 172.6H231.065L231.089 181H228.509L228.485 176.488H228.893L226.661 180.244H225.413L223.085 176.488H223.589V181H221.009ZM235.038 181.12C234.238 181.12 233.538 180.972 232.938 180.676C232.346 180.38 231.886 179.976 231.558 179.464C231.23 178.944 231.066 178.36 231.066 177.712C231.066 177.048 231.226 176.46 231.546 175.948C231.874 175.436 232.318 175.036 232.878 174.748C233.446 174.46 234.082 174.316 234.786 174.316C235.434 174.316 236.03 174.444 236.574 174.7C237.126 174.956 237.566 175.336 237.894 175.84C238.23 176.344 238.398 176.968 238.398 177.712C238.398 177.808 238.394 177.916 238.386 178.036C238.378 178.148 238.37 178.252 238.362 178.348H233.31V177.04H236.922L235.902 177.388C235.902 177.132 235.854 176.916 235.758 176.74C235.67 176.556 235.546 176.416 235.386 176.32C235.226 176.216 235.034 176.164 234.81 176.164C234.586 176.164 234.39 176.216 234.222 176.32C234.062 176.416 233.938 176.556 233.85 176.74C233.762 176.916 233.718 177.132 233.718 177.388V177.796C233.718 178.076 233.774 178.316 233.886 178.516C233.998 178.716 234.158 178.868 234.366 178.972C234.574 179.068 234.826 179.116 235.122 179.116C235.426 179.116 235.674 179.076 235.866 178.996C236.066 178.916 236.274 178.796 236.49 178.636L237.906 180.064C237.586 180.408 237.19 180.672 236.718 180.856C236.254 181.032 235.694 181.12 235.038 181.12ZM232.05 173.716L233.586 171.796H235.89L237.426 173.716H235.746L234.042 172.156H235.434L233.73 173.716H232.05ZM240.862 181.12C240.302 181.12 239.75 181.06 239.206 180.94C238.662 180.82 238.222 180.664 237.886 180.472L238.63 178.684C238.942 178.868 239.302 179.012 239.71 179.116C240.126 179.22 240.53 179.272 240.922 179.272C241.25 179.272 241.47 179.244 241.582 179.188C241.702 179.132 241.762 179.056 241.762 178.96C241.762 178.864 241.694 178.796 241.558 178.756C241.422 178.708 241.242 178.672 241.018 178.648C240.794 178.624 240.546 178.596 240.274 178.564C240.01 178.524 239.742 178.468 239.47 178.396C239.198 178.324 238.95 178.216 238.726 178.072C238.502 177.928 238.322 177.736 238.186 177.496C238.05 177.248 237.982 176.936 237.982 176.56C237.982 176.144 238.106 175.768 238.354 175.432C238.61 175.096 238.986 174.828 239.482 174.628C239.986 174.42 240.606 174.316 241.342 174.316C241.822 174.316 242.302 174.36 242.782 174.448C243.262 174.536 243.674 174.672 244.018 174.856L243.274 176.644C242.938 176.46 242.606 176.336 242.278 176.272C241.958 176.2 241.658 176.164 241.378 176.164C241.034 176.164 240.798 176.196 240.67 176.26C240.55 176.324 240.49 176.396 240.49 176.476C240.49 176.572 240.558 176.644 240.694 176.692C240.83 176.74 241.01 176.776 241.234 176.8C241.458 176.824 241.702 176.856 241.966 176.896C242.238 176.928 242.506 176.984 242.77 177.064C243.042 177.136 243.29 177.244 243.514 177.388C243.738 177.532 243.918 177.728 244.054 177.976C244.19 178.216 244.258 178.524 244.258 178.9C244.258 179.292 244.134 179.66 243.886 180.004C243.638 180.34 243.262 180.612 242.758 180.82C242.254 181.02 241.622 181.12 240.862 181.12Z" fill="white"/>
<rect y="131" width="264" height="3" fill="black"/>
<path d="M172.05 167.8L174.57 159.37L175.56 163.15C174.4 163.15 173.45 162.82 172.71 162.16C171.97 161.48 171.6 160.56 171.6 159.4C171.6 158.22 171.97 157.29 172.71 156.61C173.47 155.91 174.42 155.56 175.56 155.56C176.7 155.56 177.64 155.91 178.38 156.61C179.14 157.29 179.52 158.22 179.52 159.4C179.52 159.72 179.49 160.04 179.43 160.36C179.39 160.68 179.29 161.07 179.13 161.53C178.97 161.97 178.71 162.57 178.35 163.33L176.25 167.8H172.05ZM188.174 163.48C186.314 163.48 184.674 163.21 183.254 162.67C181.854 162.11 180.754 161.33 179.954 160.33C179.154 159.31 178.754 158.12 178.754 156.76C178.754 155.4 179.164 154.24 179.984 153.28C180.804 152.32 181.924 151.59 183.344 151.09C184.764 150.59 186.374 150.34 188.174 150.34C189.974 150.34 191.584 150.59 193.004 151.09C194.424 151.59 195.544 152.32 196.364 153.28C197.184 154.24 197.594 155.4 197.594 156.76C197.594 158.12 197.194 159.31 196.394 160.33C195.594 161.33 194.484 162.11 193.064 162.67C191.664 163.21 190.034 163.48 188.174 163.48ZM188.174 158.71C188.854 158.71 189.404 158.52 189.824 158.14C190.264 157.74 190.484 157.2 190.484 156.52C190.484 155.84 190.264 155.31 189.824 154.93C189.404 154.53 188.854 154.33 188.174 154.33C187.494 154.33 186.934 154.53 186.494 154.93C186.074 155.31 185.864 155.84 185.864 156.52C185.864 157.2 186.074 157.74 186.494 158.14C186.934 158.52 187.494 158.71 188.174 158.71ZM188.174 153.76C186.534 153.76 185.054 153.53 183.734 153.07C182.434 152.59 181.404 151.91 180.644 151.03C179.884 150.13 179.504 149.05 179.504 147.79C179.504 146.51 179.874 145.41 180.614 144.49C181.354 143.55 182.374 142.82 183.674 142.3C184.974 141.78 186.474 141.52 188.174 141.52C189.874 141.52 191.374 141.78 192.674 142.3C193.974 142.82 194.994 143.55 195.734 144.49C196.474 145.41 196.844 146.51 196.844 147.79C196.844 149.05 196.464 150.13 195.704 151.03C194.944 151.91 193.914 152.59 192.614 153.07C191.314 153.53 189.834 153.76 188.174 153.76ZM188.174 149.89C188.654 149.89 189.054 149.73 189.374 149.41C189.694 149.09 189.854 148.65 189.854 148.09C189.854 147.51 189.694 147.07 189.374 146.77C189.054 146.45 188.654 146.29 188.174 146.29C187.694 146.29 187.294 146.45 186.974 146.77C186.654 147.07 186.494 147.51 186.494 148.09C186.494 148.65 186.654 149.09 186.974 149.41C187.294 149.73 187.694 149.89 188.174 149.89ZM206.316 163.48C204.456 163.48 202.806 163.05 201.366 162.19C199.946 161.33 198.826 160.08 198.006 158.44C197.206 156.8 196.806 154.82 196.806 152.5C196.806 150.18 197.206 148.2 198.006 146.56C198.826 144.92 199.946 143.67 201.366 142.81C202.806 141.95 204.456 141.52 206.316 141.52C208.176 141.52 209.816 141.95 211.236 142.81C212.676 143.67 213.796 144.92 214.596 146.56C215.416 148.2 215.826 150.18 215.826 152.5C215.826 154.82 215.416 156.8 214.596 158.44C213.796 160.08 212.676 161.33 211.236 162.19C209.816 163.05 208.176 163.48 206.316 163.48ZM206.316 157.81C206.776 157.81 207.186 157.65 207.546 157.33C207.906 157.01 208.186 156.46 208.386 155.68C208.606 154.9 208.716 153.84 208.716 152.5C208.716 151.14 208.606 150.08 208.386 149.32C208.186 148.54 207.906 147.99 207.546 147.67C207.186 147.35 206.776 147.19 206.316 147.19C205.856 147.19 205.446 147.35 205.086 147.67C204.726 147.99 204.436 148.54 204.216 149.32C204.016 150.08 203.916 151.14 203.916 152.5C203.916 153.84 204.016 154.9 204.216 155.68C204.436 156.46 204.726 157.01 205.086 157.33C205.446 157.65 205.856 157.81 206.316 157.81Z" fill="#333333"/>
</svg>
