<svg width="289" height="235" viewBox="0 0 289 235" fill="none" xmlns="http://www.w3.org/2000/svg">
<path d="M125.04 223.64V207.96H130.8V223.64H125.04ZM119.76 218.52V213.08H136.08V218.52H119.76Z" fill="black"/>
<path d="M50.824 166V143.6H61.608C63.6987 143.6 65.5013 143.941 67.016 144.624C68.552 145.307 69.736 146.288 70.568 147.568C71.4 148.827 71.816 150.32 71.816 152.048C71.816 153.776 71.4 155.269 70.568 156.528C69.736 157.765 68.552 158.715 67.016 159.376C65.5013 160.037 63.6987 160.368 61.608 160.368H55.016L58.376 157.264V166H50.824ZM64.232 166L58.728 157.84H66.728L72.296 166H64.232ZM58.376 158.096L55.016 154.672H61.128C62.1733 154.672 62.9413 154.437 63.432 153.968C63.944 153.499 64.2 152.859 64.2 152.048C64.2 151.237 63.944 150.597 63.432 150.128C62.9413 149.659 62.1733 149.424 61.128 149.424H55.016L58.376 146V158.096ZM80.4598 166.512C78.5824 166.512 76.7691 166.299 75.0198 165.872C73.2704 165.445 71.8304 164.891 70.6998 164.208L73.1318 158.704C74.1984 159.323 75.3824 159.824 76.6838 160.208C78.0064 160.571 79.2864 160.752 80.5238 160.752C81.2491 160.752 81.8144 160.709 82.2198 160.624C82.6464 160.517 82.9558 160.379 83.1478 160.208C83.3398 160.016 83.4358 159.792 83.4358 159.536C83.4358 159.131 83.2118 158.811 82.7638 158.576C82.3158 158.341 81.7184 158.149 80.9718 158C80.2464 157.829 79.4464 157.659 78.5718 157.488C77.6971 157.296 76.8118 157.051 75.9158 156.752C75.0411 156.453 74.2304 156.059 73.4838 155.568C72.7584 155.077 72.1718 154.437 71.7238 153.648C71.2758 152.837 71.0518 151.835 71.0518 150.64C71.0518 149.253 71.4358 147.995 72.2038 146.864C72.9931 145.712 74.1558 144.795 75.6918 144.112C77.2491 143.429 79.1798 143.088 81.4838 143.088C82.9984 143.088 84.4918 143.248 85.9638 143.568C87.4358 143.888 88.7584 144.379 89.9318 145.04L87.6598 150.512C86.5504 149.957 85.4731 149.541 84.4278 149.264C83.4038 148.987 82.4011 148.848 81.4198 148.848C80.6944 148.848 80.1184 148.912 79.6918 149.04C79.2651 149.168 78.9558 149.339 78.7638 149.552C78.5931 149.765 78.5078 150 78.5078 150.256C78.5078 150.64 78.7318 150.949 79.1798 151.184C79.6278 151.397 80.2144 151.579 80.9398 151.728C81.6864 151.877 82.4971 152.037 83.3718 152.208C84.2678 152.379 85.1531 152.613 86.0278 152.912C86.9024 153.211 87.7024 153.605 88.4278 154.096C89.1744 154.587 89.7718 155.227 90.2198 156.016C90.6678 156.805 90.8918 157.787 90.8918 158.96C90.8918 160.325 90.4971 161.584 89.7078 162.736C88.9398 163.867 87.7878 164.784 86.2518 165.488C84.7158 166.171 82.7851 166.512 80.4598 166.512ZM78.9238 169.84V165.68H83.4358V169.84H78.9238ZM78.9238 143.92V139.76H83.4358V143.92H78.9238Z" fill="#333333"/>
<path d="M111.76 148.04C115.76 148.04 119.26 148.82 122.26 150.38C125.3 151.9 127.66 154.18 129.34 157.22C131.06 160.26 131.92 164.08 131.92 168.68C131.92 173.6 130.94 177.8 128.98 181.28C127.02 184.72 124.3 187.36 120.82 189.2C117.34 191.04 113.28 191.96 108.64 191.96C106.16 191.96 103.76 191.66 101.44 191.06C99.16 190.5 97.22 189.7 95.62 188.66L100.72 178.76C101.96 179.64 103.2 180.24 104.44 180.56C105.72 180.84 107.02 180.98 108.34 180.98C111.18 180.98 113.44 180.14 115.12 178.46C116.84 176.74 117.7 174.26 117.7 171.02C117.7 170.42 117.7 169.84 117.7 169.28C117.7 168.68 117.7 168.08 117.7 167.48L120.94 169.82C120.18 171.18 119.24 172.34 118.12 173.3C117.04 174.22 115.76 174.94 114.28 175.46C112.8 175.94 111.08 176.18 109.12 176.18C106.56 176.18 104.18 175.64 101.98 174.56C99.82 173.44 98.06 171.88 96.7 169.88C95.38 167.84 94.72 165.46 94.72 162.74C94.72 159.74 95.48 157.14 97 154.94C98.52 152.74 100.56 151.04 103.12 149.84C105.72 148.64 108.6 148.04 111.76 148.04ZM112.72 157.82C111.88 157.82 111.14 158 110.5 158.36C109.86 158.68 109.34 159.16 108.94 159.8C108.58 160.44 108.4 161.2 108.4 162.08C108.4 163.4 108.8 164.46 109.6 165.26C110.44 166.02 111.48 166.4 112.72 166.4C113.56 166.4 114.3 166.22 114.94 165.86C115.62 165.5 116.14 165 116.5 164.36C116.86 163.72 117.04 162.96 117.04 162.08C117.04 161.2 116.86 160.44 116.5 159.8C116.14 159.16 115.62 158.68 114.94 158.36C114.3 158 113.56 157.82 112.72 157.82ZM148.128 191.96C145.248 191.96 142.328 191.64 139.368 191C136.408 190.36 133.808 189.42 131.568 188.18L136.368 177.74C138.168 178.78 140.048 179.56 142.008 180.08C143.968 180.56 145.828 180.8 147.588 180.8C149.188 180.8 150.508 180.52 151.548 179.96C152.588 179.4 153.108 178.58 153.108 177.5C153.108 176.9 152.928 176.38 152.568 175.94C152.208 175.46 151.568 175.1 150.648 174.86C149.768 174.62 148.468 174.5 146.748 174.5H134.568L136.668 149H164.568V159.68H141.648L148.788 153.62L147.528 169.88L140.388 163.82H150.168C154.328 163.82 157.648 164.42 160.128 165.62C162.648 166.82 164.468 168.44 165.588 170.48C166.748 172.48 167.328 174.72 167.328 177.2C167.328 179.68 166.648 182.06 165.288 184.34C163.968 186.58 161.888 188.42 159.048 189.86C156.248 191.26 152.608 191.96 148.128 191.96Z" fill="#333333"/>
<path d="M43.968 126.048C37.824 126.048 31.5947 125.365 25.28 124C18.9653 122.635 13.4187 120.629 8.64 117.984L18.88 95.712C22.72 97.9307 26.7307 99.5947 30.912 100.704C35.0933 101.728 39.0613 102.24 42.816 102.24C46.2293 102.24 49.0453 101.643 51.264 100.448C53.4827 99.2533 54.592 97.504 54.592 95.2C54.592 93.92 54.208 92.8107 53.44 91.872C52.672 90.848 51.3067 90.08 49.344 89.568C47.4667 89.056 44.6933 88.8 41.024 88.8H15.04L19.52 34.4H79.04V57.184H30.144L45.376 44.256L42.688 78.944L27.456 66.016H48.32C57.1947 66.016 64.2773 67.296 69.568 69.856C74.944 72.416 78.8267 75.872 81.216 80.224C83.6907 84.4907 84.928 89.2693 84.928 94.56C84.928 99.8507 83.4773 104.928 80.576 109.792C77.76 114.571 73.3227 118.496 67.264 121.568C61.2907 124.555 53.5253 126.048 43.968 126.048ZM122.578 126.048C114.642 126.048 107.602 124.213 101.458 120.544C95.3993 116.875 90.6207 111.541 87.122 104.544C83.7087 97.5467 82.002 89.0987 82.002 79.2C82.002 69.3013 83.7087 60.8533 87.122 53.856C90.6207 46.8587 95.3993 41.5253 101.458 37.856C107.602 34.1867 114.642 32.352 122.578 32.352C130.514 32.352 137.511 34.1867 143.57 37.856C149.714 41.5253 154.493 46.8587 157.906 53.856C161.405 60.8533 163.154 69.3013 163.154 79.2C163.154 89.0987 161.405 97.5467 157.906 104.544C154.493 111.541 149.714 116.875 143.57 120.544C137.511 124.213 130.514 126.048 122.578 126.048ZM122.578 101.856C124.541 101.856 126.29 101.173 127.826 99.808C129.362 98.4427 130.557 96.096 131.41 92.768C132.349 89.44 132.818 84.9173 132.818 79.2C132.818 73.3973 132.349 68.8747 131.41 65.632C130.557 62.304 129.362 59.9573 127.826 58.592C126.29 57.2267 124.541 56.544 122.578 56.544C120.615 56.544 118.866 57.2267 117.33 58.592C115.794 59.9573 114.557 62.304 113.618 65.632C112.765 68.8747 112.338 73.3973 112.338 79.2C112.338 84.9173 112.765 89.44 113.618 92.768C114.557 96.096 115.794 98.4427 117.33 99.808C118.866 101.173 120.615 101.856 122.578 101.856ZM202.243 126.048C194.307 126.048 187.267 124.213 181.123 120.544C175.064 116.875 170.286 111.541 166.787 104.544C163.374 97.5467 161.667 89.0987 161.667 79.2C161.667 69.3013 163.374 60.8533 166.787 53.856C170.286 46.8587 175.064 41.5253 181.123 37.856C187.267 34.1867 194.307 32.352 202.243 32.352C210.179 32.352 217.176 34.1867 223.235 37.856C229.379 41.5253 234.158 46.8587 237.571 53.856C241.07 60.8533 242.819 69.3013 242.819 79.2C242.819 89.0987 241.07 97.5467 237.571 104.544C234.158 111.541 229.379 116.875 223.235 120.544C217.176 124.213 210.179 126.048 202.243 126.048ZM202.243 101.856C204.206 101.856 205.955 101.173 207.491 99.808C209.027 98.4427 210.222 96.096 211.075 92.768C212.014 89.44 212.483 84.9173 212.483 79.2C212.483 73.3973 212.014 68.8747 211.075 65.632C210.222 62.304 209.027 59.9573 207.491 58.592C205.955 57.2267 204.206 56.544 202.243 56.544C200.28 56.544 198.531 57.2267 196.995 58.592C195.459 59.9573 194.222 62.304 193.283 65.632C192.43 68.8747 192.003 73.3973 192.003 79.2C192.003 84.9173 192.43 89.44 193.283 92.768C194.222 96.096 195.459 98.4427 196.995 99.808C198.531 101.173 200.28 101.856 202.243 101.856Z" fill="#333333"/>
<rect x="210" y="26" width="79" height="25" rx="5" fill="#DB0E35"/>
<rect x="213" y="166" width="35" height="20" rx="3" fill="#DB0E35"/>
<path d="M218.254 46V30.6H222.522L228.682 40.654H226.438L232.422 30.6H236.69L236.734 46H232.004L231.96 37.728H232.708L228.616 44.614H226.328L222.06 37.728H222.984V46H218.254ZM242.236 36.32H249.1V40.06H242.236V36.32ZM242.588 42.084H250.288V46H237.484V30.6H250.002V34.516H242.588V42.084ZM258.513 46.352C257.266 46.352 256.115 46.1613 255.059 45.78C254.018 45.384 253.108 44.8267 252.331 44.108C251.568 43.3893 250.974 42.5387 250.549 41.556C250.124 40.5733 249.911 39.488 249.911 38.3C249.911 37.112 250.124 36.0267 250.549 35.044C250.974 34.0613 251.576 33.2107 252.353 32.492C253.13 31.7733 254.047 31.2233 255.103 30.842C256.174 30.446 257.347 30.248 258.623 30.248C260.148 30.248 261.505 30.5047 262.693 31.018C263.896 31.5313 264.886 32.2647 265.663 33.218L262.341 36.144C261.857 35.5867 261.329 35.1687 260.757 34.89C260.2 34.5967 259.576 34.45 258.887 34.45C258.315 34.45 257.794 34.538 257.325 34.714C256.87 34.89 256.482 35.1467 256.159 35.484C255.836 35.8213 255.587 36.2247 255.411 36.694C255.235 37.1633 255.147 37.6987 255.147 38.3C255.147 38.872 255.235 39.4 255.411 39.884C255.587 40.3533 255.836 40.7567 256.159 41.094C256.482 41.4313 256.863 41.6953 257.303 41.886C257.758 42.062 258.264 42.15 258.821 42.15C259.408 42.15 259.98 42.0547 260.537 41.864C261.094 41.6587 261.688 41.314 262.319 40.83L265.223 44.394C264.284 45.0247 263.214 45.5087 262.011 45.846C260.808 46.1833 259.642 46.352 258.513 46.352ZM260.713 43.734V37.882H265.223V44.394L260.713 43.734ZM264.003 46L270.735 30.6H275.839L282.571 46H277.203L272.231 33.064H274.255L269.283 46H264.003ZM268.007 43.316L269.327 39.576H276.411L277.731 43.316H268.007Z" fill="white"/>
<path d="M215.52 181.2L219.48 169.896H221.88L217.92 181.2H215.52ZM221.009 180V171.6H223.337L226.697 177.084H225.473L228.737 171.6H231.065L231.089 180H228.509L228.485 175.488H228.893L226.661 179.244H225.413L223.085 175.488H223.589V180H221.009ZM235.038 180.12C234.238 180.12 233.538 179.972 232.938 179.676C232.346 179.38 231.886 178.976 231.558 178.464C231.23 177.944 231.066 177.36 231.066 176.712C231.066 176.048 231.226 175.46 231.546 174.948C231.874 174.436 232.318 174.036 232.878 173.748C233.446 173.46 234.082 173.316 234.786 173.316C235.434 173.316 236.03 173.444 236.574 173.7C237.126 173.956 237.566 174.336 237.894 174.84C238.23 175.344 238.398 175.968 238.398 176.712C238.398 176.808 238.394 176.916 238.386 177.036C238.378 177.148 238.37 177.252 238.362 177.348H233.31V176.04H236.922L235.902 176.388C235.902 176.132 235.854 175.916 235.758 175.74C235.67 175.556 235.546 175.416 235.386 175.32C235.226 175.216 235.034 175.164 234.81 175.164C234.586 175.164 234.39 175.216 234.222 175.32C234.062 175.416 233.938 175.556 233.85 175.74C233.762 175.916 233.718 176.132 233.718 176.388V176.796C233.718 177.076 233.774 177.316 233.886 177.516C233.998 177.716 234.158 177.868 234.366 177.972C234.574 178.068 234.826 178.116 235.122 178.116C235.426 178.116 235.674 178.076 235.866 177.996C236.066 177.916 236.274 177.796 236.49 177.636L237.906 179.064C237.586 179.408 237.19 179.672 236.718 179.856C236.254 180.032 235.694 180.12 235.038 180.12ZM232.05 172.716L233.586 170.796H235.89L237.426 172.716H235.746L234.042 171.156H235.434L233.73 172.716H232.05ZM240.862 180.12C240.302 180.12 239.75 180.06 239.206 179.94C238.662 179.82 238.222 179.664 237.886 179.472L238.63 177.684C238.942 177.868 239.302 178.012 239.71 178.116C240.126 178.22 240.53 178.272 240.922 178.272C241.25 178.272 241.47 178.244 241.582 178.188C241.702 178.132 241.762 178.056 241.762 177.96C241.762 177.864 241.694 177.796 241.558 177.756C241.422 177.708 241.242 177.672 241.018 177.648C240.794 177.624 240.546 177.596 240.274 177.564C240.01 177.524 239.742 177.468 239.47 177.396C239.198 177.324 238.95 177.216 238.726 177.072C238.502 176.928 238.322 176.736 238.186 176.496C238.05 176.248 237.982 175.936 237.982 175.56C237.982 175.144 238.106 174.768 238.354 174.432C238.61 174.096 238.986 173.828 239.482 173.628C239.986 173.42 240.606 173.316 241.342 173.316C241.822 173.316 242.302 173.36 242.782 173.448C243.262 173.536 243.674 173.672 244.018 173.856L243.274 175.644C242.938 175.46 242.606 175.336 242.278 175.272C241.958 175.2 241.658 175.164 241.378 175.164C241.034 175.164 240.798 175.196 240.67 175.26C240.55 175.324 240.49 175.396 240.49 175.476C240.49 175.572 240.558 175.644 240.694 175.692C240.83 175.74 241.01 175.776 241.234 175.8C241.458 175.824 241.702 175.856 241.966 175.896C242.238 175.928 242.506 175.984 242.77 176.064C243.042 176.136 243.29 176.244 243.514 176.388C243.738 176.532 243.918 176.728 244.054 176.976C244.19 177.216 244.258 177.524 244.258 177.9C244.258 178.292 244.134 178.66 243.886 179.004C243.638 179.34 243.262 179.612 242.758 179.82C242.254 180.02 241.622 180.12 240.862 180.12Z" fill="white"/>
<rect y="130" width="264" height="3" fill="black"/>
<path d="M172.05 166.8L174.57 158.37L175.56 162.15C174.4 162.15 173.45 161.82 172.71 161.16C171.97 160.48 171.6 159.56 171.6 158.4C171.6 157.22 171.97 156.29 172.71 155.61C173.47 154.91 174.42 154.56 175.56 154.56C176.7 154.56 177.64 154.91 178.38 155.61C179.14 156.29 179.52 157.22 179.52 158.4C179.52 158.72 179.49 159.04 179.43 159.36C179.39 159.68 179.29 160.07 179.13 160.53C178.97 160.97 178.71 161.57 178.35 162.33L176.25 166.8H172.05ZM188.174 162.48C186.314 162.48 184.674 162.21 183.254 161.67C181.854 161.11 180.754 160.33 179.954 159.33C179.154 158.31 178.754 157.12 178.754 155.76C178.754 154.4 179.164 153.24 179.984 152.28C180.804 151.32 181.924 150.59 183.344 150.09C184.764 149.59 186.374 149.34 188.174 149.34C189.974 149.34 191.584 149.59 193.004 150.09C194.424 150.59 195.544 151.32 196.364 152.28C197.184 153.24 197.594 154.4 197.594 155.76C197.594 157.12 197.194 158.31 196.394 159.33C195.594 160.33 194.484 161.11 193.064 161.67C191.664 162.21 190.034 162.48 188.174 162.48ZM188.174 157.71C188.854 157.71 189.404 157.52 189.824 157.14C190.264 156.74 190.484 156.2 190.484 155.52C190.484 154.84 190.264 154.31 189.824 153.93C189.404 153.53 188.854 153.33 188.174 153.33C187.494 153.33 186.934 153.53 186.494 153.93C186.074 154.31 185.864 154.84 185.864 155.52C185.864 156.2 186.074 156.74 186.494 157.14C186.934 157.52 187.494 157.71 188.174 157.71ZM188.174 152.76C186.534 152.76 185.054 152.53 183.734 152.07C182.434 151.59 181.404 150.91 180.644 150.03C179.884 149.13 179.504 148.05 179.504 146.79C179.504 145.51 179.874 144.41 180.614 143.49C181.354 142.55 182.374 141.82 183.674 141.3C184.974 140.78 186.474 140.52 188.174 140.52C189.874 140.52 191.374 140.78 192.674 141.3C193.974 141.82 194.994 142.55 195.734 143.49C196.474 144.41 196.844 145.51 196.844 146.79C196.844 148.05 196.464 149.13 195.704 150.03C194.944 150.91 193.914 151.59 192.614 152.07C191.314 152.53 189.834 152.76 188.174 152.76ZM188.174 148.89C188.654 148.89 189.054 148.73 189.374 148.41C189.694 148.09 189.854 147.65 189.854 147.09C189.854 146.51 189.694 146.07 189.374 145.77C189.054 145.45 188.654 145.29 188.174 145.29C187.694 145.29 187.294 145.45 186.974 145.77C186.654 146.07 186.494 146.51 186.494 147.09C186.494 147.65 186.654 148.09 186.974 148.41C187.294 148.73 187.694 148.89 188.174 148.89ZM206.316 162.48C204.456 162.48 202.806 162.05 201.366 161.19C199.946 160.33 198.826 159.08 198.006 157.44C197.206 155.8 196.806 153.82 196.806 151.5C196.806 149.18 197.206 147.2 198.006 145.56C198.826 143.92 199.946 142.67 201.366 141.81C202.806 140.95 204.456 140.52 206.316 140.52C208.176 140.52 209.816 140.95 211.236 141.81C212.676 142.67 213.796 143.92 214.596 145.56C215.416 147.2 215.826 149.18 215.826 151.5C215.826 153.82 215.416 155.8 214.596 157.44C213.796 159.08 212.676 160.33 211.236 161.19C209.816 162.05 208.176 162.48 206.316 162.48ZM206.316 156.81C206.776 156.81 207.186 156.65 207.546 156.33C207.906 156.01 208.186 155.46 208.386 154.68C208.606 153.9 208.716 152.84 208.716 151.5C208.716 150.14 208.606 149.08 208.386 148.32C208.186 147.54 207.906 146.99 207.546 146.67C207.186 146.35 206.776 146.19 206.316 146.19C205.856 146.19 205.446 146.35 205.086 146.67C204.726 146.99 204.436 147.54 204.216 148.32C204.016 149.08 203.916 150.14 203.916 151.5C203.916 152.84 204.016 153.9 204.216 154.68C204.436 155.46 204.726 156.01 205.086 156.33C205.446 156.65 205.856 156.81 206.316 156.81Z" fill="#333333"/>
</svg>
