<svg width="289" height="235" viewBox="0 0 289 235" fill="none" xmlns="http://www.w3.org/2000/svg">
<path d="M125.04 223.64V207.96H130.8V223.64H125.04ZM119.76 218.52V213.08H136.08V218.52H119.76Z" fill="black"/>
<path d="M38.824 165V142.6H49.608C51.6987 142.6 53.5013 142.941 55.016 143.624C56.552 144.307 57.736 145.288 58.568 146.568C59.4 147.827 59.816 149.32 59.816 151.048C59.816 152.776 59.4 154.269 58.568 155.528C57.736 156.765 56.552 157.715 55.016 158.376C53.5013 159.037 51.6987 159.368 49.608 159.368H43.016L46.376 156.264V165H38.824ZM52.232 165L46.728 156.84H54.728L60.296 165H52.232ZM46.376 157.096L43.016 153.672H49.128C50.1733 153.672 50.9413 153.437 51.432 152.968C51.944 152.499 52.2 151.859 52.2 151.048C52.2 150.237 51.944 149.597 51.432 149.128C50.9413 148.659 50.1733 148.424 49.128 148.424H43.016L46.376 145V157.096ZM68.4598 165.512C66.5824 165.512 64.7691 165.299 63.0198 164.872C61.2704 164.445 59.8304 163.891 58.6998 163.208L61.1318 157.704C62.1984 158.323 63.3824 158.824 64.6838 159.208C66.0064 159.571 67.2864 159.752 68.5238 159.752C69.2491 159.752 69.8144 159.709 70.2198 159.624C70.6464 159.517 70.9558 159.379 71.1478 159.208C71.3398 159.016 71.4358 158.792 71.4358 158.536C71.4358 158.131 71.2118 157.811 70.7638 157.576C70.3158 157.341 69.7184 157.149 68.9718 157C68.2464 156.829 67.4464 156.659 66.5718 156.488C65.6971 156.296 64.8118 156.051 63.9158 155.752C63.0411 155.453 62.2304 155.059 61.4838 154.568C60.7584 154.077 60.1718 153.437 59.7238 152.648C59.2758 151.837 59.0518 150.835 59.0518 149.64C59.0518 148.253 59.4358 146.995 60.2038 145.864C60.9931 144.712 62.1558 143.795 63.6918 143.112C65.2491 142.429 67.1798 142.088 69.4838 142.088C70.9984 142.088 72.4918 142.248 73.9638 142.568C75.4358 142.888 76.7584 143.379 77.9318 144.04L75.6598 149.512C74.5504 148.957 73.4731 148.541 72.4278 148.264C71.4038 147.987 70.4011 147.848 69.4198 147.848C68.6944 147.848 68.1184 147.912 67.6918 148.04C67.2651 148.168 66.9558 148.339 66.7638 148.552C66.5931 148.765 66.5078 149 66.5078 149.256C66.5078 149.64 66.7318 149.949 67.1798 150.184C67.6278 150.397 68.2144 150.579 68.9398 150.728C69.6864 150.877 70.4971 151.037 71.3718 151.208C72.2678 151.379 73.1531 151.613 74.0278 151.912C74.9024 152.211 75.7024 152.605 76.4278 153.096C77.1744 153.587 77.7718 154.227 78.2198 155.016C78.6678 155.805 78.8918 156.787 78.8918 157.96C78.8918 159.325 78.4971 160.584 77.7078 161.736C76.9398 162.867 75.7878 163.784 74.2518 164.488C72.7158 165.171 70.7851 165.512 68.4598 165.512ZM66.9238 168.84V164.68H71.4358V168.84H66.9238ZM66.9238 142.92V138.76H71.4358V142.92H66.9238Z" fill="#333333"/>
<path d="M91.5 191V153.92L97.56 159.68H84.3V149H105.66V191H91.5ZM127.438 191.96C123.718 191.96 120.418 191.1 117.538 189.38C114.698 187.66 112.458 185.16 110.818 181.88C109.218 178.6 108.418 174.64 108.418 170C108.418 165.36 109.218 161.4 110.818 158.12C112.458 154.84 114.698 152.34 117.538 150.62C120.418 148.9 123.718 148.04 127.438 148.04C131.158 148.04 134.438 148.9 137.278 150.62C140.158 152.34 142.398 154.84 143.998 158.12C145.638 161.4 146.458 165.36 146.458 170C146.458 174.64 145.638 178.6 143.998 181.88C142.398 185.16 140.158 187.66 137.278 189.38C134.438 191.1 131.158 191.96 127.438 191.96ZM127.438 180.62C128.358 180.62 129.178 180.3 129.898 179.66C130.618 179.02 131.178 177.92 131.578 176.36C132.018 174.8 132.238 172.68 132.238 170C132.238 167.28 132.018 165.16 131.578 163.64C131.178 162.08 130.618 160.98 129.898 160.34C129.178 159.7 128.358 159.38 127.438 159.38C126.518 159.38 125.698 159.7 124.978 160.34C124.258 160.98 123.678 162.08 123.238 163.64C122.838 165.16 122.638 167.28 122.638 170C122.638 172.68 122.838 174.8 123.238 176.36C123.678 177.92 124.258 179.02 124.978 179.66C125.698 180.3 126.518 180.62 127.438 180.62ZM163.581 148.04C167.581 148.04 171.081 148.82 174.081 150.38C177.121 151.9 179.481 154.18 181.161 157.22C182.881 160.26 183.741 164.08 183.741 168.68C183.741 173.6 182.761 177.8 180.801 181.28C178.841 184.72 176.121 187.36 172.641 189.2C169.161 191.04 165.101 191.96 160.461 191.96C157.981 191.96 155.581 191.66 153.261 191.06C150.981 190.5 149.041 189.7 147.441 188.66L152.541 178.76C153.781 179.64 155.021 180.24 156.261 180.56C157.541 180.84 158.841 180.98 160.161 180.98C163.001 180.98 165.261 180.14 166.941 178.46C168.661 176.74 169.521 174.26 169.521 171.02C169.521 170.42 169.521 169.84 169.521 169.28C169.521 168.68 169.521 168.08 169.521 167.48L172.761 169.82C172.001 171.18 171.061 172.34 169.941 173.3C168.861 174.22 167.581 174.94 166.101 175.46C164.621 175.94 162.901 176.18 160.941 176.18C158.381 176.18 156.001 175.64 153.801 174.56C151.641 173.44 149.881 171.88 148.521 169.88C147.201 167.84 146.541 165.46 146.541 162.74C146.541 159.74 147.301 157.14 148.821 154.94C150.341 152.74 152.381 151.04 154.941 149.84C157.541 148.64 160.421 148.04 163.581 148.04ZM164.541 157.82C163.701 157.82 162.961 158 162.321 158.36C161.681 158.68 161.161 159.16 160.761 159.8C160.401 160.44 160.221 161.2 160.221 162.08C160.221 163.4 160.621 164.46 161.421 165.26C162.261 166.02 163.301 166.4 164.541 166.4C165.381 166.4 166.121 166.22 166.761 165.86C167.441 165.5 167.961 165 168.321 164.36C168.681 163.72 168.861 162.96 168.861 162.08C168.861 161.2 168.681 160.44 168.321 159.8C167.961 159.16 167.441 158.68 166.761 158.36C166.121 158 165.381 157.82 164.541 157.82Z" fill="#333333"/>
<path d="M24.512 124L58.304 45.152L66.368 57.824H23.872L35.648 44.128V70.88H10.688V34.4H87.36V52.96L57.536 124H24.512ZM123.328 126.048C115.392 126.048 108.352 124.213 102.208 120.544C96.1493 116.875 91.3707 111.541 87.872 104.544C84.4587 97.5467 82.752 89.0987 82.752 79.2C82.752 69.3013 84.4587 60.8533 87.872 53.856C91.3707 46.8587 96.1493 41.5253 102.208 37.856C108.352 34.1867 115.392 32.352 123.328 32.352C131.264 32.352 138.261 34.1867 144.32 37.856C150.464 41.5253 155.243 46.8587 158.656 53.856C162.155 60.8533 163.904 69.3013 163.904 79.2C163.904 89.0987 162.155 97.5467 158.656 104.544C155.243 111.541 150.464 116.875 144.32 120.544C138.261 124.213 131.264 126.048 123.328 126.048ZM123.328 101.856C125.291 101.856 127.04 101.173 128.576 99.808C130.112 98.4427 131.307 96.096 132.16 92.768C133.099 89.44 133.568 84.9173 133.568 79.2C133.568 73.3973 133.099 68.8747 132.16 65.632C131.307 62.304 130.112 59.9573 128.576 58.592C127.04 57.2267 125.291 56.544 123.328 56.544C121.365 56.544 119.616 57.2267 118.08 58.592C116.544 59.9573 115.307 62.304 114.368 65.632C113.515 68.8747 113.088 73.3973 113.088 79.2C113.088 84.9173 113.515 89.44 114.368 92.768C115.307 96.096 116.544 98.4427 118.08 99.808C119.616 101.173 121.365 101.856 123.328 101.856ZM202.993 126.048C195.057 126.048 188.017 124.213 181.873 120.544C175.814 116.875 171.036 111.541 167.537 104.544C164.124 97.5467 162.417 89.0987 162.417 79.2C162.417 69.3013 164.124 60.8533 167.537 53.856C171.036 46.8587 175.814 41.5253 181.873 37.856C188.017 34.1867 195.057 32.352 202.993 32.352C210.929 32.352 217.926 34.1867 223.985 37.856C230.129 41.5253 234.908 46.8587 238.321 53.856C241.82 60.8533 243.569 69.3013 243.569 79.2C243.569 89.0987 241.82 97.5467 238.321 104.544C234.908 111.541 230.129 116.875 223.985 120.544C217.926 124.213 210.929 126.048 202.993 126.048ZM202.993 101.856C204.956 101.856 206.705 101.173 208.241 99.808C209.777 98.4427 210.972 96.096 211.825 92.768C212.764 89.44 213.233 84.9173 213.233 79.2C213.233 73.3973 212.764 68.8747 211.825 65.632C210.972 62.304 209.777 59.9573 208.241 58.592C206.705 57.2267 204.956 56.544 202.993 56.544C201.03 56.544 199.281 57.2267 197.745 58.592C196.209 59.9573 194.972 62.304 194.033 65.632C193.18 68.8747 192.753 73.3973 192.753 79.2C192.753 84.9173 193.18 89.44 194.033 92.768C194.972 96.096 196.209 98.4427 197.745 99.808C199.281 101.173 201.03 101.856 202.993 101.856Z" fill="#333333"/>
<rect x="210" y="26" width="79" height="25" rx="5" fill="#DB0E35"/>
<rect x="213" y="166" width="35" height="20" rx="3" fill="#DB0E35"/>
<path d="M218.254 46V30.6H222.522L228.682 40.654H226.438L232.422 30.6H236.69L236.734 46H232.004L231.96 37.728H232.708L228.616 44.614H226.328L222.06 37.728H222.984V46H218.254ZM242.236 36.32H249.1V40.06H242.236V36.32ZM242.588 42.084H250.288V46H237.484V30.6H250.002V34.516H242.588V42.084ZM258.513 46.352C257.266 46.352 256.115 46.1613 255.059 45.78C254.018 45.384 253.108 44.8267 252.331 44.108C251.568 43.3893 250.974 42.5387 250.549 41.556C250.124 40.5733 249.911 39.488 249.911 38.3C249.911 37.112 250.124 36.0267 250.549 35.044C250.974 34.0613 251.576 33.2107 252.353 32.492C253.13 31.7733 254.047 31.2233 255.103 30.842C256.174 30.446 257.347 30.248 258.623 30.248C260.148 30.248 261.505 30.5047 262.693 31.018C263.896 31.5313 264.886 32.2647 265.663 33.218L262.341 36.144C261.857 35.5867 261.329 35.1687 260.757 34.89C260.2 34.5967 259.576 34.45 258.887 34.45C258.315 34.45 257.794 34.538 257.325 34.714C256.87 34.89 256.482 35.1467 256.159 35.484C255.836 35.8213 255.587 36.2247 255.411 36.694C255.235 37.1633 255.147 37.6987 255.147 38.3C255.147 38.872 255.235 39.4 255.411 39.884C255.587 40.3533 255.836 40.7567 256.159 41.094C256.482 41.4313 256.863 41.6953 257.303 41.886C257.758 42.062 258.264 42.15 258.821 42.15C259.408 42.15 259.98 42.0547 260.537 41.864C261.094 41.6587 261.688 41.314 262.319 40.83L265.223 44.394C264.284 45.0247 263.214 45.5087 262.011 45.846C260.808 46.1833 259.642 46.352 258.513 46.352ZM260.713 43.734V37.882H265.223V44.394L260.713 43.734ZM264.003 46L270.735 30.6H275.839L282.571 46H277.203L272.231 33.064H274.255L269.283 46H264.003ZM268.007 43.316L269.327 39.576H276.411L277.731 43.316H268.007Z" fill="white"/>
<path d="M215.52 181.2L219.48 169.896H221.88L217.92 181.2H215.52ZM221.009 180V171.6H223.337L226.697 177.084H225.473L228.737 171.6H231.065L231.089 180H228.509L228.485 175.488H228.893L226.661 179.244H225.413L223.085 175.488H223.589V180H221.009ZM235.038 180.12C234.238 180.12 233.538 179.972 232.938 179.676C232.346 179.38 231.886 178.976 231.558 178.464C231.23 177.944 231.066 177.36 231.066 176.712C231.066 176.048 231.226 175.46 231.546 174.948C231.874 174.436 232.318 174.036 232.878 173.748C233.446 173.46 234.082 173.316 234.786 173.316C235.434 173.316 236.03 173.444 236.574 173.7C237.126 173.956 237.566 174.336 237.894 174.84C238.23 175.344 238.398 175.968 238.398 176.712C238.398 176.808 238.394 176.916 238.386 177.036C238.378 177.148 238.37 177.252 238.362 177.348H233.31V176.04H236.922L235.902 176.388C235.902 176.132 235.854 175.916 235.758 175.74C235.67 175.556 235.546 175.416 235.386 175.32C235.226 175.216 235.034 175.164 234.81 175.164C234.586 175.164 234.39 175.216 234.222 175.32C234.062 175.416 233.938 175.556 233.85 175.74C233.762 175.916 233.718 176.132 233.718 176.388V176.796C233.718 177.076 233.774 177.316 233.886 177.516C233.998 177.716 234.158 177.868 234.366 177.972C234.574 178.068 234.826 178.116 235.122 178.116C235.426 178.116 235.674 178.076 235.866 177.996C236.066 177.916 236.274 177.796 236.49 177.636L237.906 179.064C237.586 179.408 237.19 179.672 236.718 179.856C236.254 180.032 235.694 180.12 235.038 180.12ZM232.05 172.716L233.586 170.796H235.89L237.426 172.716H235.746L234.042 171.156H235.434L233.73 172.716H232.05ZM240.862 180.12C240.302 180.12 239.75 180.06 239.206 179.94C238.662 179.82 238.222 179.664 237.886 179.472L238.63 177.684C238.942 177.868 239.302 178.012 239.71 178.116C240.126 178.22 240.53 178.272 240.922 178.272C241.25 178.272 241.47 178.244 241.582 178.188C241.702 178.132 241.762 178.056 241.762 177.96C241.762 177.864 241.694 177.796 241.558 177.756C241.422 177.708 241.242 177.672 241.018 177.648C240.794 177.624 240.546 177.596 240.274 177.564C240.01 177.524 239.742 177.468 239.47 177.396C239.198 177.324 238.95 177.216 238.726 177.072C238.502 176.928 238.322 176.736 238.186 176.496C238.05 176.248 237.982 175.936 237.982 175.56C237.982 175.144 238.106 174.768 238.354 174.432C238.61 174.096 238.986 173.828 239.482 173.628C239.986 173.42 240.606 173.316 241.342 173.316C241.822 173.316 242.302 173.36 242.782 173.448C243.262 173.536 243.674 173.672 244.018 173.856L243.274 175.644C242.938 175.46 242.606 175.336 242.278 175.272C241.958 175.2 241.658 175.164 241.378 175.164C241.034 175.164 240.798 175.196 240.67 175.26C240.55 175.324 240.49 175.396 240.49 175.476C240.49 175.572 240.558 175.644 240.694 175.692C240.83 175.74 241.01 175.776 241.234 175.8C241.458 175.824 241.702 175.856 241.966 175.896C242.238 175.928 242.506 175.984 242.77 176.064C243.042 176.136 243.29 176.244 243.514 176.388C243.738 176.532 243.918 176.728 244.054 176.976C244.19 177.216 244.258 177.524 244.258 177.9C244.258 178.292 244.134 178.66 243.886 179.004C243.638 179.34 243.262 179.612 242.758 179.82C242.254 180.02 241.622 180.12 240.862 180.12Z" fill="white"/>
<rect y="130" width="264" height="3" fill="black"/>
<path d="M186.05 166.8L188.57 158.37L189.56 162.15C188.4 162.15 187.45 161.82 186.71 161.16C185.97 160.48 185.6 159.56 185.6 158.4C185.6 157.22 185.97 156.29 186.71 155.61C187.47 154.91 188.42 154.56 189.56 154.56C190.7 154.56 191.64 154.91 192.38 155.61C193.14 156.29 193.52 157.22 193.52 158.4C193.52 158.72 193.49 159.04 193.43 159.36C193.39 159.68 193.29 160.07 193.13 160.53C192.97 160.97 192.71 161.57 192.35 162.33L190.25 166.8H186.05ZM200.591 140.52C202.591 140.52 204.341 140.91 205.841 141.69C207.361 142.45 208.541 143.59 209.381 145.11C210.241 146.63 210.671 148.54 210.671 150.84C210.671 153.3 210.181 155.4 209.201 157.14C208.221 158.86 206.861 160.18 205.121 161.1C203.381 162.02 201.351 162.48 199.031 162.48C197.791 162.48 196.591 162.33 195.431 162.03C194.291 161.75 193.321 161.35 192.521 160.83L195.071 155.88C195.691 156.32 196.311 156.62 196.931 156.78C197.571 156.92 198.221 156.99 198.881 156.99C200.301 156.99 201.431 156.57 202.271 155.73C203.131 154.87 203.561 153.63 203.561 152.01C203.561 151.71 203.561 151.42 203.561 151.14C203.561 150.84 203.561 150.54 203.561 150.24L205.181 151.41C204.801 152.09 204.331 152.67 203.771 153.15C203.231 153.61 202.591 153.97 201.851 154.23C201.111 154.47 200.251 154.59 199.271 154.59C197.991 154.59 196.801 154.32 195.701 153.78C194.621 153.22 193.741 152.44 193.061 151.44C192.401 150.42 192.071 149.23 192.071 147.87C192.071 146.37 192.451 145.07 193.211 143.97C193.971 142.87 194.991 142.02 196.271 141.42C197.571 140.82 199.011 140.52 200.591 140.52ZM201.071 145.41C200.651 145.41 200.281 145.5 199.961 145.68C199.641 145.84 199.381 146.08 199.181 146.4C199.001 146.72 198.911 147.1 198.911 147.54C198.911 148.2 199.111 148.73 199.511 149.13C199.931 149.51 200.451 149.7 201.071 149.7C201.491 149.7 201.861 149.61 202.181 149.43C202.521 149.25 202.781 149 202.961 148.68C203.141 148.36 203.231 147.98 203.231 147.54C203.231 147.1 203.141 146.72 202.961 146.4C202.781 146.08 202.521 145.84 202.181 145.68C201.861 145.5 201.491 145.41 201.071 145.41ZM219.525 162.48C217.665 162.48 216.015 162.05 214.575 161.19C213.155 160.33 212.035 159.08 211.215 157.44C210.415 155.8 210.015 153.82 210.015 151.5C210.015 149.18 210.415 147.2 211.215 145.56C212.035 143.92 213.155 142.67 214.575 141.81C216.015 140.95 217.665 140.52 219.525 140.52C221.385 140.52 223.025 140.95 224.445 141.81C225.885 142.67 227.005 143.92 227.805 145.56C228.625 147.2 229.035 149.18 229.035 151.5C229.035 153.82 228.625 155.8 227.805 157.44C227.005 159.08 225.885 160.33 224.445 161.19C223.025 162.05 221.385 162.48 219.525 162.48ZM219.525 156.81C219.985 156.81 220.395 156.65 220.755 156.33C221.115 156.01 221.395 155.46 221.595 154.68C221.815 153.9 221.925 152.84 221.925 151.5C221.925 150.14 221.815 149.08 221.595 148.32C221.395 147.54 221.115 146.99 220.755 146.67C220.395 146.35 219.985 146.19 219.525 146.19C219.065 146.19 218.655 146.35 218.295 146.67C217.935 146.99 217.645 147.54 217.425 148.32C217.225 149.08 217.125 150.14 217.125 151.5C217.125 152.84 217.225 153.9 217.425 154.68C217.645 155.46 217.935 156.01 218.295 156.33C218.655 156.65 219.065 156.81 219.525 156.81Z" fill="#333333"/>
</svg>
