<svg width="293" height="235" viewBox="0 0 293 235" fill="none" xmlns="http://www.w3.org/2000/svg">
<path d="M129.04 223.64V207.96H134.8V223.64H129.04ZM123.76 218.52V213.08H140.08V218.52H123.76Z" fill="black"/>
<path d="M42.824 165V142.6H53.608C55.6987 142.6 57.5013 142.941 59.016 143.624C60.552 144.307 61.736 145.288 62.568 146.568C63.4 147.827 63.816 149.32 63.816 151.048C63.816 152.776 63.4 154.269 62.568 155.528C61.736 156.765 60.552 157.715 59.016 158.376C57.5013 159.037 55.6987 159.368 53.608 159.368H47.016L50.376 156.264V165H42.824ZM56.232 165L50.728 156.84H58.728L64.296 165H56.232ZM50.376 157.096L47.016 153.672H53.128C54.1733 153.672 54.9413 153.437 55.432 152.968C55.944 152.499 56.2 151.859 56.2 151.048C56.2 150.237 55.944 149.597 55.432 149.128C54.9413 148.659 54.1733 148.424 53.128 148.424H47.016L50.376 145V157.096ZM72.4598 165.512C70.5824 165.512 68.7691 165.299 67.0198 164.872C65.2704 164.445 63.8304 163.891 62.6998 163.208L65.1318 157.704C66.1984 158.323 67.3824 158.824 68.6838 159.208C70.0064 159.571 71.2864 159.752 72.5238 159.752C73.2491 159.752 73.8144 159.709 74.2198 159.624C74.6464 159.517 74.9558 159.379 75.1478 159.208C75.3398 159.016 75.4358 158.792 75.4358 158.536C75.4358 158.131 75.2118 157.811 74.7638 157.576C74.3158 157.341 73.7184 157.149 72.9718 157C72.2464 156.829 71.4464 156.659 70.5718 156.488C69.6971 156.296 68.8118 156.051 67.9158 155.752C67.0411 155.453 66.2304 155.059 65.4838 154.568C64.7584 154.077 64.1718 153.437 63.7238 152.648C63.2758 151.837 63.0518 150.835 63.0518 149.64C63.0518 148.253 63.4358 146.995 64.2038 145.864C64.9931 144.712 66.1558 143.795 67.6918 143.112C69.2491 142.429 71.1798 142.088 73.4838 142.088C74.9984 142.088 76.4918 142.248 77.9638 142.568C79.4358 142.888 80.7584 143.379 81.9318 144.04L79.6598 149.512C78.5504 148.957 77.4731 148.541 76.4278 148.264C75.4038 147.987 74.4011 147.848 73.4198 147.848C72.6944 147.848 72.1184 147.912 71.6918 148.04C71.2651 148.168 70.9558 148.339 70.7638 148.552C70.5931 148.765 70.5078 149 70.5078 149.256C70.5078 149.64 70.7318 149.949 71.1798 150.184C71.6278 150.397 72.2144 150.579 72.9398 150.728C73.6864 150.877 74.4971 151.037 75.3718 151.208C76.2678 151.379 77.1531 151.613 78.0278 151.912C78.9024 152.211 79.7024 152.605 80.4278 153.096C81.1744 153.587 81.7718 154.227 82.2198 155.016C82.6678 155.805 82.8918 156.787 82.8918 157.96C82.8918 159.325 82.4971 160.584 81.7078 161.736C80.9398 162.867 79.7878 163.784 78.2518 164.488C76.7158 165.171 74.7851 165.512 72.4598 165.512ZM70.9238 168.84V164.68H75.4358V168.84H70.9238ZM70.9238 142.92V138.76H75.4358V142.92H70.9238Z" fill="#333333"/>
<path d="M91.5 191V153.92L97.56 159.68H84.3V149H105.66V191H91.5ZM108.358 191V182.3L123.538 168.26C124.498 167.34 125.198 166.54 125.638 165.86C126.118 165.18 126.438 164.58 126.598 164.06C126.758 163.5 126.838 162.98 126.838 162.5C126.838 161.46 126.498 160.66 125.818 160.1C125.138 159.5 124.118 159.2 122.758 159.2C121.518 159.2 120.338 159.54 119.218 160.22C118.098 160.86 117.218 161.82 116.578 163.1L105.898 157.76C107.418 154.88 109.698 152.54 112.738 150.74C115.778 148.94 119.558 148.04 124.078 148.04C127.398 148.04 130.338 148.58 132.898 149.66C135.458 150.74 137.458 152.26 138.898 154.22C140.338 156.18 141.058 158.5 141.058 161.18C141.058 162.54 140.878 163.9 140.518 165.26C140.198 166.62 139.518 168.06 138.478 169.58C137.438 171.06 135.898 172.72 133.858 174.56L122.458 184.94L120.238 180.02H142.018V191H108.358ZM158.542 148.04C162.542 148.04 166.042 148.82 169.042 150.38C172.082 151.9 174.442 154.18 176.122 157.22C177.842 160.26 178.702 164.08 178.702 168.68C178.702 173.6 177.722 177.8 175.762 181.28C173.802 184.72 171.082 187.36 167.602 189.2C164.122 191.04 160.062 191.96 155.422 191.96C152.942 191.96 150.542 191.66 148.222 191.06C145.942 190.5 144.002 189.7 142.402 188.66L147.502 178.76C148.742 179.64 149.982 180.24 151.222 180.56C152.502 180.84 153.802 180.98 155.122 180.98C157.962 180.98 160.222 180.14 161.902 178.46C163.622 176.74 164.482 174.26 164.482 171.02C164.482 170.42 164.482 169.84 164.482 169.28C164.482 168.68 164.482 168.08 164.482 167.48L167.722 169.82C166.962 171.18 166.022 172.34 164.902 173.3C163.822 174.22 162.542 174.94 161.062 175.46C159.582 175.94 157.862 176.18 155.902 176.18C153.342 176.18 150.962 175.64 148.762 174.56C146.602 173.44 144.842 171.88 143.482 169.88C142.162 167.84 141.502 165.46 141.502 162.74C141.502 159.74 142.262 157.14 143.782 154.94C145.302 152.74 147.342 151.04 149.902 149.84C152.502 148.64 155.382 148.04 158.542 148.04ZM159.502 157.82C158.662 157.82 157.922 158 157.282 158.36C156.642 158.68 156.122 159.16 155.722 159.8C155.362 160.44 155.182 161.2 155.182 162.08C155.182 163.4 155.582 164.46 156.382 165.26C157.222 166.02 158.262 166.4 159.502 166.4C160.342 166.4 161.082 166.22 161.722 165.86C162.402 165.5 162.922 165 163.282 164.36C163.642 163.72 163.822 162.96 163.822 162.08C163.822 161.2 163.642 160.44 163.282 159.8C162.922 159.16 162.402 158.68 161.722 158.36C161.082 158 160.342 157.82 159.502 157.82Z" fill="#333333"/>
<path d="M28.512 124L62.304 45.152L70.368 57.824H27.872L39.648 44.128V70.88H14.688V34.4H91.36V52.96L61.536 124H28.512ZM127.328 126.048C119.392 126.048 112.352 124.213 106.208 120.544C100.149 116.875 95.3707 111.541 91.872 104.544C88.4587 97.5467 86.752 89.0987 86.752 79.2C86.752 69.3013 88.4587 60.8533 91.872 53.856C95.3707 46.8587 100.149 41.5253 106.208 37.856C112.352 34.1867 119.392 32.352 127.328 32.352C135.264 32.352 142.261 34.1867 148.32 37.856C154.464 41.5253 159.243 46.8587 162.656 53.856C166.155 60.8533 167.904 69.3013 167.904 79.2C167.904 89.0987 166.155 97.5467 162.656 104.544C159.243 111.541 154.464 116.875 148.32 120.544C142.261 124.213 135.264 126.048 127.328 126.048ZM127.328 101.856C129.291 101.856 131.04 101.173 132.576 99.808C134.112 98.4427 135.307 96.096 136.16 92.768C137.099 89.44 137.568 84.9173 137.568 79.2C137.568 73.3973 137.099 68.8747 136.16 65.632C135.307 62.304 134.112 59.9573 132.576 58.592C131.04 57.2267 129.291 56.544 127.328 56.544C125.365 56.544 123.616 57.2267 122.08 58.592C120.544 59.9573 119.307 62.304 118.368 65.632C117.515 68.8747 117.088 73.3973 117.088 79.2C117.088 84.9173 117.515 89.44 118.368 92.768C119.307 96.096 120.544 98.4427 122.08 99.808C123.616 101.173 125.365 101.856 127.328 101.856ZM206.993 126.048C199.057 126.048 192.017 124.213 185.873 120.544C179.814 116.875 175.036 111.541 171.537 104.544C168.124 97.5467 166.417 89.0987 166.417 79.2C166.417 69.3013 168.124 60.8533 171.537 53.856C175.036 46.8587 179.814 41.5253 185.873 37.856C192.017 34.1867 199.057 32.352 206.993 32.352C214.929 32.352 221.926 34.1867 227.985 37.856C234.129 41.5253 238.908 46.8587 242.321 53.856C245.82 60.8533 247.569 69.3013 247.569 79.2C247.569 89.0987 245.82 97.5467 242.321 104.544C238.908 111.541 234.129 116.875 227.985 120.544C221.926 124.213 214.929 126.048 206.993 126.048ZM206.993 101.856C208.956 101.856 210.705 101.173 212.241 99.808C213.777 98.4427 214.972 96.096 215.825 92.768C216.764 89.44 217.233 84.9173 217.233 79.2C217.233 73.3973 216.764 68.8747 215.825 65.632C214.972 62.304 213.777 59.9573 212.241 58.592C210.705 57.2267 208.956 56.544 206.993 56.544C205.03 56.544 203.281 57.2267 201.745 58.592C200.209 59.9573 198.972 62.304 198.033 65.632C197.18 68.8747 196.753 73.3973 196.753 79.2C196.753 84.9173 197.18 89.44 198.033 92.768C198.972 96.096 200.209 98.4427 201.745 99.808C203.281 101.173 205.03 101.856 206.993 101.856Z" fill="#333333"/>
<rect x="214" y="26" width="79" height="25" rx="5" fill="#DB0E35"/>
<rect x="217" y="166" width="35" height="20" rx="3" fill="#DB0E35"/>
<path d="M222.254 46V30.6H226.522L232.682 40.654H230.438L236.422 30.6H240.69L240.734 46H236.004L235.96 37.728H236.708L232.616 44.614H230.328L226.06 37.728H226.984V46H222.254ZM246.236 36.32H253.1V40.06H246.236V36.32ZM246.588 42.084H254.288V46H241.484V30.6H254.002V34.516H246.588V42.084ZM262.513 46.352C261.266 46.352 260.115 46.1613 259.059 45.78C258.018 45.384 257.108 44.8267 256.331 44.108C255.568 43.3893 254.974 42.5387 254.549 41.556C254.124 40.5733 253.911 39.488 253.911 38.3C253.911 37.112 254.124 36.0267 254.549 35.044C254.974 34.0613 255.576 33.2107 256.353 32.492C257.13 31.7733 258.047 31.2233 259.103 30.842C260.174 30.446 261.347 30.248 262.623 30.248C264.148 30.248 265.505 30.5047 266.693 31.018C267.896 31.5313 268.886 32.2647 269.663 33.218L266.341 36.144C265.857 35.5867 265.329 35.1687 264.757 34.89C264.2 34.5967 263.576 34.45 262.887 34.45C262.315 34.45 261.794 34.538 261.325 34.714C260.87 34.89 260.482 35.1467 260.159 35.484C259.836 35.8213 259.587 36.2247 259.411 36.694C259.235 37.1633 259.147 37.6987 259.147 38.3C259.147 38.872 259.235 39.4 259.411 39.884C259.587 40.3533 259.836 40.7567 260.159 41.094C260.482 41.4313 260.863 41.6953 261.303 41.886C261.758 42.062 262.264 42.15 262.821 42.15C263.408 42.15 263.98 42.0547 264.537 41.864C265.094 41.6587 265.688 41.314 266.319 40.83L269.223 44.394C268.284 45.0247 267.214 45.5087 266.011 45.846C264.808 46.1833 263.642 46.352 262.513 46.352ZM264.713 43.734V37.882H269.223V44.394L264.713 43.734ZM268.003 46L274.735 30.6H279.839L286.571 46H281.203L276.231 33.064H278.255L273.283 46H268.003ZM272.007 43.316L273.327 39.576H280.411L281.731 43.316H272.007Z" fill="white"/>
<path d="M219.52 181.2L223.48 169.896H225.88L221.92 181.2H219.52ZM225.009 180V171.6H227.337L230.697 177.084H229.473L232.737 171.6H235.065L235.089 180H232.509L232.485 175.488H232.893L230.661 179.244H229.413L227.085 175.488H227.589V180H225.009ZM239.038 180.12C238.238 180.12 237.538 179.972 236.938 179.676C236.346 179.38 235.886 178.976 235.558 178.464C235.23 177.944 235.066 177.36 235.066 176.712C235.066 176.048 235.226 175.46 235.546 174.948C235.874 174.436 236.318 174.036 236.878 173.748C237.446 173.46 238.082 173.316 238.786 173.316C239.434 173.316 240.03 173.444 240.574 173.7C241.126 173.956 241.566 174.336 241.894 174.84C242.23 175.344 242.398 175.968 242.398 176.712C242.398 176.808 242.394 176.916 242.386 177.036C242.378 177.148 242.37 177.252 242.362 177.348H237.31V176.04H240.922L239.902 176.388C239.902 176.132 239.854 175.916 239.758 175.74C239.67 175.556 239.546 175.416 239.386 175.32C239.226 175.216 239.034 175.164 238.81 175.164C238.586 175.164 238.39 175.216 238.222 175.32C238.062 175.416 237.938 175.556 237.85 175.74C237.762 175.916 237.718 176.132 237.718 176.388V176.796C237.718 177.076 237.774 177.316 237.886 177.516C237.998 177.716 238.158 177.868 238.366 177.972C238.574 178.068 238.826 178.116 239.122 178.116C239.426 178.116 239.674 178.076 239.866 177.996C240.066 177.916 240.274 177.796 240.49 177.636L241.906 179.064C241.586 179.408 241.19 179.672 240.718 179.856C240.254 180.032 239.694 180.12 239.038 180.12ZM236.05 172.716L237.586 170.796H239.89L241.426 172.716H239.746L238.042 171.156H239.434L237.73 172.716H236.05ZM244.862 180.12C244.302 180.12 243.75 180.06 243.206 179.94C242.662 179.82 242.222 179.664 241.886 179.472L242.63 177.684C242.942 177.868 243.302 178.012 243.71 178.116C244.126 178.22 244.53 178.272 244.922 178.272C245.25 178.272 245.47 178.244 245.582 178.188C245.702 178.132 245.762 178.056 245.762 177.96C245.762 177.864 245.694 177.796 245.558 177.756C245.422 177.708 245.242 177.672 245.018 177.648C244.794 177.624 244.546 177.596 244.274 177.564C244.01 177.524 243.742 177.468 243.47 177.396C243.198 177.324 242.95 177.216 242.726 177.072C242.502 176.928 242.322 176.736 242.186 176.496C242.05 176.248 241.982 175.936 241.982 175.56C241.982 175.144 242.106 174.768 242.354 174.432C242.61 174.096 242.986 173.828 243.482 173.628C243.986 173.42 244.606 173.316 245.342 173.316C245.822 173.316 246.302 173.36 246.782 173.448C247.262 173.536 247.674 173.672 248.018 173.856L247.274 175.644C246.938 175.46 246.606 175.336 246.278 175.272C245.958 175.2 245.658 175.164 245.378 175.164C245.034 175.164 244.798 175.196 244.67 175.26C244.55 175.324 244.49 175.396 244.49 175.476C244.49 175.572 244.558 175.644 244.694 175.692C244.83 175.74 245.01 175.776 245.234 175.8C245.458 175.824 245.702 175.856 245.966 175.896C246.238 175.928 246.506 175.984 246.77 176.064C247.042 176.136 247.29 176.244 247.514 176.388C247.738 176.532 247.918 176.728 248.054 176.976C248.19 177.216 248.258 177.524 248.258 177.9C248.258 178.292 248.134 178.66 247.886 179.004C247.638 179.34 247.262 179.612 246.758 179.82C246.254 180.02 245.622 180.12 244.862 180.12Z" fill="white"/>
<rect y="128" width="264" height="3" fill="black"/>
<path d="M184.05 167.8L186.57 159.37L187.56 163.15C186.4 163.15 185.45 162.82 184.71 162.16C183.97 161.48 183.6 160.56 183.6 159.4C183.6 158.22 183.97 157.29 184.71 156.61C185.47 155.91 186.42 155.56 187.56 155.56C188.7 155.56 189.64 155.91 190.38 156.61C191.14 157.29 191.52 158.22 191.52 159.4C191.52 159.72 191.49 160.04 191.43 160.36C191.39 160.68 191.29 161.07 191.13 161.53C190.97 161.97 190.71 162.57 190.35 163.33L188.25 167.8H184.05ZM198.591 141.52C200.591 141.52 202.341 141.91 203.841 142.69C205.361 143.45 206.541 144.59 207.381 146.11C208.241 147.63 208.671 149.54 208.671 151.84C208.671 154.3 208.181 156.4 207.201 158.14C206.221 159.86 204.861 161.18 203.121 162.1C201.381 163.02 199.351 163.48 197.031 163.48C195.791 163.48 194.591 163.33 193.431 163.03C192.291 162.75 191.321 162.35 190.521 161.83L193.071 156.88C193.691 157.32 194.311 157.62 194.931 157.78C195.571 157.92 196.221 157.99 196.881 157.99C198.301 157.99 199.431 157.57 200.271 156.73C201.131 155.87 201.561 154.63 201.561 153.01C201.561 152.71 201.561 152.42 201.561 152.14C201.561 151.84 201.561 151.54 201.561 151.24L203.181 152.41C202.801 153.09 202.331 153.67 201.771 154.15C201.231 154.61 200.591 154.97 199.851 155.23C199.111 155.47 198.251 155.59 197.271 155.59C195.991 155.59 194.801 155.32 193.701 154.78C192.621 154.22 191.741 153.44 191.061 152.44C190.401 151.42 190.071 150.23 190.071 148.87C190.071 147.37 190.451 146.07 191.211 144.97C191.971 143.87 192.991 143.02 194.271 142.42C195.571 141.82 197.011 141.52 198.591 141.52ZM199.071 146.41C198.651 146.41 198.281 146.5 197.961 146.68C197.641 146.84 197.381 147.08 197.181 147.4C197.001 147.72 196.911 148.1 196.911 148.54C196.911 149.2 197.111 149.73 197.511 150.13C197.931 150.51 198.451 150.7 199.071 150.7C199.491 150.7 199.861 150.61 200.181 150.43C200.521 150.25 200.781 150 200.961 149.68C201.141 149.36 201.231 148.98 201.231 148.54C201.231 148.1 201.141 147.72 200.961 147.4C200.781 147.08 200.521 146.84 200.181 146.68C199.861 146.5 199.491 146.41 199.071 146.41ZM217.525 163.48C215.665 163.48 214.015 163.05 212.575 162.19C211.155 161.33 210.035 160.08 209.215 158.44C208.415 156.8 208.015 154.82 208.015 152.5C208.015 150.18 208.415 148.2 209.215 146.56C210.035 144.92 211.155 143.67 212.575 142.81C214.015 141.95 215.665 141.52 217.525 141.52C219.385 141.52 221.025 141.95 222.445 142.81C223.885 143.67 225.005 144.92 225.805 146.56C226.625 148.2 227.035 150.18 227.035 152.5C227.035 154.82 226.625 156.8 225.805 158.44C225.005 160.08 223.885 161.33 222.445 162.19C221.025 163.05 219.385 163.48 217.525 163.48ZM217.525 157.81C217.985 157.81 218.395 157.65 218.755 157.33C219.115 157.01 219.395 156.46 219.595 155.68C219.815 154.9 219.925 153.84 219.925 152.5C219.925 151.14 219.815 150.08 219.595 149.32C219.395 148.54 219.115 147.99 218.755 147.67C218.395 147.35 217.985 147.19 217.525 147.19C217.065 147.19 216.655 147.35 216.295 147.67C215.935 147.99 215.645 148.54 215.425 149.32C215.225 150.08 215.125 151.14 215.125 152.5C215.125 153.84 215.225 154.9 215.425 155.68C215.645 156.46 215.935 157.01 216.295 157.33C216.655 157.65 217.065 157.81 217.525 157.81Z" fill="#333333"/>
</svg>
